<svg width="127" height="52" viewBox="0 0 127 52" fill="none" xmlns="http://www.w3.org/2000/svg">
<path opacity="0.7" fill-rule="evenodd" clip-rule="evenodd" d="M29.4725 21.0912L37.723 21.0752C38.9333 21.0752 39.0774 22.8126 37.772 22.8271H29.5526C28.2448 22.8278 28.2776 21.0759 29.4725 21.0912ZM22.7968 25.7754L22.8122 18.1291C22.8282 16.3765 24.2947 15.1816 25.6002 15.1816H41.8014C43.3786 15.1816 44.607 16.3765 44.607 18.2878L44.5896 32.7852C44.6224 35.0462 43.4923 36.2739 41.1331 36.2739L25.6002 36.2899C21.4096 36.2899 21.7461 30.5062 25.6002 30.458H37.852C39.0134 30.3787 38.8539 28.7222 37.7726 28.7222H25.6803C23.8971 28.549 22.9563 27.3686 22.7968 25.7754ZM47.4418 16.423C46.5018 16.4406 46.4398 15.1976 47.4112 15.1976H53.3696L64.1054 27.8478L64.1229 17.8415C64.1229 16.7114 62.9106 16.4238 62.3702 16.4238C61.6202 16.4238 61.4944 15.1823 62.3702 15.1823H67.7694C68.8232 15.1823 68.6293 16.4238 67.7694 16.4719C67.1957 16.4879 66.145 16.6161 66.0808 17.7774L66.145 36.8636C66.145 37.358 65.588 37.358 65.1736 36.8636L52.0466 21.3941L52.0154 33.726C52.0466 34.8721 53.0667 35.0316 53.5597 35.0462C54.5638 35.095 54.531 36.3219 53.719 36.3219H48.0789C47.3158 36.3059 47.2974 35.0462 48.0323 35.0462C48.732 35.0308 49.8643 34.7615 49.8957 33.6764L49.8795 18.8761C49.8957 17.0136 48.2078 16.423 47.4418 16.423ZM70.4782 34.7767C71.0992 34.7767 71.7059 33.9481 71.7371 33.0095L71.7525 17.4432C71.7227 16.7595 71.1 16.4566 70.5422 16.4413C69.5229 16.4238 69.5869 15.1984 70.527 15.1984H83.7013L85.0099 20.9485C85.28 21.6016 83.989 21.7451 83.6387 20.9332C81.967 18.6716 81.265 15.7706 77.5064 16.7595C77.1386 16.8549 76.9638 17.0784 76.8357 17.3966V24.5973C76.8357 24.8514 77.3141 24.8674 77.4736 24.8514C79.7986 24.6125 79.7192 22.8935 80.1816 21.0126C80.341 20.2801 81.6298 20.3755 81.648 20.9485L81.664 29.885C81.664 30.3023 80.5149 30.4276 80.3555 29.9507C79.6566 28.0538 79.6878 26.5735 77.5208 26.1104C77.3141 26.1104 76.6762 25.9997 76.6762 26.4934L76.709 33.2011C76.7891 34.1564 77.3782 34.2663 77.8398 34.3647C78.5418 34.4113 79.224 34.2663 79.9114 34.1412C81.3765 33.8222 84.1171 32.9463 85.6776 29.5508C85.9325 28.8679 86.9518 29.1068 86.7923 29.7744L85.1694 36.3067L70.5422 36.3227C69.3962 36.2907 69.6824 34.7767 70.4782 34.7767ZM86.075 15.1816H92.8157C93.8664 15.1816 93.771 16.5352 92.8622 16.6153C92.4822 16.6458 91.955 17.1242 92.3373 18.0948L95.4115 27.4487C95.4115 27.464 95.4587 27.48 95.4909 27.48L98.1987 20.7242C97.0528 16.5199 97.1168 17.157 96.4957 16.7107C95.6984 16.6794 95.4122 15.2129 96.527 15.2129L103.41 15.1976C104.301 15.1976 104.253 16.6 103.442 16.6466C102.836 16.6954 102.389 16.8854 102.613 17.6179L105.273 27.0176L108.603 18.0162C108.841 17.0144 107.599 16.6466 107.138 16.6161C106.468 16.5825 106.372 15.277 107.104 15.2281H111.854C112.696 15.277 113.079 16.4558 112.188 16.6954C111.486 16.8862 111.217 16.8221 110.914 17.6355L104.333 36.1959C104.206 36.5759 103.457 36.5615 103.297 36.2585L99.1083 23.291L94.5691 36.1959C94.3754 36.6103 93.6603 36.6415 93.42 36.1959L87.8774 18.9105C87.605 18.065 86.9518 16.6313 86.1102 16.6008C85.248 16.5512 85.2334 15.1816 86.075 15.1816ZM2.96282 28.7084C1.33605 28.7084 0 27.3854 0 25.7754C0.00080828 24.9899 0.313246 24.2369 0.86873 23.6815C1.42421 23.1262 2.17734 22.8139 2.96282 22.8133C3.7481 22.8145 4.5009 23.127 5.05624 23.6822C5.6116 24.2374 5.92422 24.9901 5.92563 25.7754C5.92488 27.3846 4.58653 28.7084 2.96282 28.7084ZM10.5457 28.7084C8.92126 28.7084 7.59819 27.3854 7.59819 25.7754C7.61064 25 7.92744 24.2605 8.48021 23.7165C9.03299 23.1725 9.77746 22.8677 10.553 22.8677C11.3285 22.8677 12.073 23.1725 12.6258 23.7165C13.1785 24.2605 13.4953 25 13.5078 25.7754C13.5078 27.3846 12.187 28.7084 10.5457 28.7084ZM18.2234 28.7084C16.5995 28.7084 15.2605 27.3854 15.2605 25.7754C15.2619 24.9901 15.5745 24.2374 16.1299 23.6822C16.6853 23.127 17.4379 22.8145 18.2234 22.8133C19.009 22.8141 19.7621 23.1264 20.3179 23.6816C20.8738 24.2368 21.1867 24.9898 21.1883 25.7754C21.1883 27.3846 19.8493 28.7084 18.2234 28.7084ZM2.96282 21.1072C1.33605 21.1072 0 19.7689 0 18.1444C0 16.5207 1.33605 15.1816 2.96282 15.1816C4.58653 15.1816 5.92563 16.5199 5.92563 18.1444C5.92488 19.7689 4.58653 21.1072 2.96282 21.1072ZM10.5457 21.1072C8.92126 21.1072 7.59819 19.7689 7.59819 18.1444C7.59819 16.5207 8.92126 15.1816 10.5457 15.1816C11.3311 15.1828 12.0839 15.4954 12.6392 16.0508C13.1944 16.6061 13.5068 17.3591 13.5078 18.1444C13.5068 18.9297 13.1944 19.6826 12.6392 20.238C12.0839 20.7934 11.3311 21.106 10.5457 21.1072ZM18.1768 21.1072C16.5507 21.1072 15.2292 19.7689 15.2292 18.1444C15.2292 16.5207 16.5499 15.1816 18.1768 15.1816C18.9621 15.183 19.7149 15.4956 20.2702 16.0509C20.8256 16.6063 21.1381 17.359 21.1395 18.1444C21.1381 18.9298 20.8256 19.6825 20.2702 20.2379C19.7149 20.7932 18.9621 21.1058 18.1768 21.1072ZM2.96282 36.3547C1.33605 36.3547 0 35.0164 0 33.3889C0.00121082 32.6035 0.313754 31.8505 0.869126 31.2951C1.4245 30.7398 2.17741 30.4273 2.96282 30.426C3.74818 30.4275 4.50096 30.7401 5.05629 31.2953C5.61162 31.8507 5.92422 32.6035 5.92563 33.3889C5.92488 35.0164 4.58653 36.3547 2.96282 36.3547ZM10.4343 36.3547C9.64819 36.3535 8.89459 36.0406 8.33877 35.4846C7.78294 34.9287 7.47024 34.175 7.46923 33.3889C7.46883 32.9995 7.54526 32.6139 7.69416 32.254C7.84306 31.8942 8.06149 31.5673 8.33693 31.2921C8.61238 31.0169 8.93942 30.7987 9.29934 30.65C9.65925 30.5014 10.045 30.4254 10.4343 30.426C10.8224 30.427 11.2065 30.5044 11.5647 30.6539C11.9228 30.8033 12.248 31.0219 12.5217 31.2969C12.7955 31.5721 13.0123 31.8985 13.1599 32.2574C13.3075 32.6163 13.3829 33.0007 13.3819 33.3889C13.3819 35.0164 12.0588 36.3547 10.4343 36.3547ZM18.1614 36.3547C16.5347 36.3547 15.1964 35.0164 15.1964 33.3889C15.198 32.6031 15.511 31.8502 16.0667 31.2948C16.6226 30.7395 17.3758 30.427 18.1614 30.426C18.9469 30.4275 19.6997 30.7401 20.2549 31.2953C20.8102 31.8507 21.1229 32.6035 21.1243 33.3889C21.1243 35.0164 19.7851 36.3547 18.1614 36.3547ZM111.759 35.5246L111.775 28.8672C111.695 28.1804 112.921 28.1163 113.001 28.578C114.069 30.7137 114.577 33.1828 116.73 34.2647C117.67 34.8073 118.88 34.8073 119.804 34.2823C120.664 33.7879 121.254 32.9295 121.413 31.8758C121.444 31.4302 121.318 31.0174 121.189 30.5542C120.423 28.8824 118.704 28.2445 117.223 27.4144C115.518 26.4919 113.606 25.7113 112.874 23.7351C112.818 23.4648 112.743 23.1987 112.65 22.9385C112.348 21.6642 112.537 20.4228 112.92 19.2279C113.494 17.5378 114.913 16.0728 116.49 15.3716C116.873 15.2274 117.238 15.0854 117.636 15.0221C118.292 14.8474 118.928 14.7833 119.548 14.8787C120.145 14.9041 120.733 15.0337 121.286 15.2617C121.858 15.3723 122.354 15.9629 122.926 15.7706C123.181 15.5471 123.325 15.2922 123.674 15.341C123.882 15.3571 123.946 15.4517 124.106 15.5318C124.326 15.8195 124.312 16.2643 124.344 16.6466L124.406 21.475C124.406 21.9526 123.324 21.9526 123.26 21.5391C122.255 19.7071 121.22 15.7058 117.843 17.0144C117.11 17.3638 116.617 17.9697 116.345 18.751C116.041 19.8971 116.44 20.9172 117.428 21.6345L122.113 24.3432C124.025 25.4893 125.554 27.4647 125.44 29.8553C125.379 30.7953 125.234 31.7972 124.917 32.6273C123.627 35.7497 121.777 36.5767 118.974 36.8492C116.743 37.0551 115.182 35.5588 113.51 35.4948C113.095 35.4948 113.143 36.1785 112.744 36.2921C112.489 36.3075 112.251 36.3563 112.042 36.2433C111.838 36.0823 111.805 35.7977 111.759 35.5246Z" fill="#001B36" fill-opacity="0.6"/>
</svg>
