<svg width="142" height="52" viewBox="0 0 142 52" fill="none" xmlns="http://www.w3.org/2000/svg">
<g clip-path="url(#clip0_199_268)">
<g opacity="0.7">
<path d="M12.2971 32.5102C11.2299 32.7614 10.079 32.9707 8.96988 32.9707C4.23851 32.9686 0.953125 30.6039 0.953125 25.6654C0.953125 20.662 4.00832 17.8579 8.96988 17.8579C9.93247 17.8579 11.209 18.0462 12.2762 18.4648L12.0669 20.9361C10.9578 20.3083 9.95131 20.1619 8.90501 20.1619C5.89166 20.1619 4.00832 22.4637 4.00832 25.4561C4.00832 28.4276 5.84981 30.6666 8.96988 30.6666C10.1208 30.6666 11.481 30.4156 12.1715 30.0599L12.2971 32.5102ZM14.4483 18.109H19.5542C21.4376 18.109 24.2626 18.6531 24.2626 21.8569C24.2626 23.5937 23.0907 24.8074 21.3539 25.1214V25.1652C23.3419 25.3536 24.702 26.6908 24.702 28.4924C24.702 32.1776 21.3958 32.7216 19.5542 32.7216H14.4483V18.109ZM17.3779 30.4156H18.7591C20.1192 30.4156 21.7724 30.0807 21.7724 28.3858C21.7724 26.4815 20.2239 26.1885 18.7591 26.1885H17.3779V30.4156ZM17.3779 24.0101H18.5707C19.8054 24.0101 21.3329 23.7382 21.3329 22.2314C21.3329 20.5343 19.8473 20.4109 18.5079 20.4109H17.3779V24.0101ZM37.8625 32.5102C36.7952 32.7614 35.6443 32.9707 34.5351 32.9707C29.8038 32.9707 26.5184 30.606 26.5184 25.6654C26.5184 20.662 29.5737 17.8579 34.5351 17.8579C35.4978 17.8579 36.7742 18.0462 37.8415 18.4648L37.6322 20.9361C36.5231 20.3083 35.5188 20.1619 34.4703 20.1619C31.457 20.1619 29.5737 22.4637 29.5737 25.4561C29.5737 28.4276 31.4151 30.6666 34.5351 30.6666C35.6861 30.6666 37.0463 30.4156 37.7368 30.0599L37.8625 32.5102Z" fill="#001B36" fill-opacity="0.6"/>
<path d="M63.0223 30.2363C65.6708 30.2363 67.8178 28.0892 67.8178 25.4406C67.8178 22.7921 65.6708 20.645 63.0223 20.645C60.3736 20.645 58.2266 22.7921 58.2266 25.4406C58.2266 28.0892 60.3736 30.2363 63.0223 30.2363Z" fill="#001B36" fill-opacity="0.6"/>
<path d="M52.6876 25.4411C52.6876 26.0707 52.8116 26.6943 53.0527 27.276C53.2937 27.8577 53.647 28.3863 54.0924 28.8314C54.5377 29.2766 55.0663 29.6297 55.6483 29.8705C56.2301 30.1113 56.8536 30.235 57.4833 30.2348V20.6454C56.8534 20.6452 56.2297 20.7691 55.6478 21.01C55.0659 21.2509 54.537 21.6041 54.0917 22.0495C53.6463 22.4949 53.2931 23.0236 53.0522 23.6056C52.8113 24.1875 52.6874 24.8112 52.6876 25.4411ZM68.5551 35.5272C69.1528 35.528 69.7448 35.411 70.2971 35.1828C70.8495 34.9546 71.3515 34.6197 71.7743 34.1974C72.1972 33.7751 72.5326 33.2735 72.7615 32.7214C72.9904 32.1694 73.1083 31.5775 73.1083 30.9798L68.5571 30.978L68.5551 35.5272ZM52.9263 19.9081H57.4833V15.3531C56.275 15.3531 55.1163 15.8329 54.2617 16.6871C53.4072 17.5413 52.9269 18.6999 52.9263 19.9081ZM57.4813 35.5272V30.978L52.9245 30.9798C52.926 32.1871 53.4069 33.3443 54.2615 34.197C55.1159 35.0498 56.2742 35.5282 57.4813 35.5272ZM74.092 21.3212L74.094 29.5629C74.8084 29.1381 75.4001 28.5349 75.811 27.8122C76.2219 27.0897 76.4378 26.2727 76.4376 25.4416C76.4373 24.6103 76.221 23.7934 75.8099 23.0711C75.3987 22.3487 74.8067 21.7457 74.092 21.3212ZM63.0202 12.0244C61.2682 12.0244 59.7358 12.9639 58.9002 14.3655L67.1401 14.3674C66.7156 13.653 66.1126 13.0614 65.3903 12.6506C64.6679 12.2398 63.8511 12.024 63.0202 12.0244ZM62.9566 38.8578C63.7876 38.8583 64.6045 38.6429 65.3272 38.2324C66.0498 37.822 66.6533 37.2307 67.0785 36.5167L58.8368 36.5149C59.2612 37.2292 59.8643 37.8208 60.5865 38.2316C61.3089 38.6424 62.1257 38.8582 62.9566 38.8578ZM63.0202 35.7717C64.2915 35.7717 65.5109 35.2666 66.4098 34.3676C67.3089 33.4687 67.8139 32.2494 67.8139 30.978H58.2225C58.2229 31.6077 58.3471 32.2313 58.5884 32.813C58.8297 33.3948 59.183 33.9233 59.6286 34.3684C60.074 34.8136 60.6029 35.1667 61.1848 35.4075C61.7667 35.6481 62.3904 35.7719 63.0202 35.7717ZM68.5571 20.6454V30.2348C69.8286 30.2348 71.0483 29.7296 71.9474 28.8305C72.8466 27.9313 73.3517 26.7118 73.3517 25.4402C73.3517 24.1685 72.8466 22.949 71.9474 22.0498C71.0483 21.1506 69.8286 20.6454 68.5571 20.6454ZM63.0202 15.1182C61.7483 15.1182 60.5284 15.6235 59.6292 16.5228C58.7298 17.4222 58.2245 18.642 58.2245 19.9139H67.8139C67.8142 19.2842 67.6904 18.6606 67.4496 18.0788C67.2088 17.497 66.8557 16.9683 66.4105 16.5229C65.9653 16.0776 65.4368 15.7243 64.8551 15.4833C64.2734 15.2423 63.6499 15.1182 63.0202 15.1182ZM49.6016 25.4411C49.6016 27.1931 50.5411 28.7255 51.9445 29.5629L51.9464 21.3212C51.2317 21.7454 50.6397 22.3484 50.2285 23.0707C49.8174 23.7931 49.6013 24.61 49.6016 25.4411ZM73.1083 19.91C73.1085 19.312 72.9909 18.7199 72.7622 18.1673C72.5334 17.6148 72.198 17.1128 71.7752 16.6899C71.3524 16.2671 70.8504 15.9317 70.2979 15.703C69.7453 15.4743 69.1531 15.3567 68.5551 15.3569V19.9081L73.1083 19.91Z" fill="#001B36" fill-opacity="0.6"/>
<path d="M87.957 17.8579H91.5563L97.1247 28.7834H97.1666V17.8579H99.9707V32.4663H96.3924L90.8051 21.5388H90.7632V32.4663H87.9591L87.957 17.8579ZM111.603 31.8594C110.578 32.4244 109.406 32.7174 107.897 32.7174C104.34 32.7174 102.268 30.6666 102.268 27.1281C102.268 24.0101 103.921 21.4342 107.272 21.4342C111.269 21.4342 112.399 24.1775 112.399 27.9442H104.947C105.072 29.681 106.286 30.6646 108.023 30.6646C109.383 30.6646 110.555 30.1624 111.601 29.5744L111.603 31.8594ZM109.72 26.019C109.636 24.6589 109.009 23.487 107.439 23.487C105.87 23.487 105.072 24.5751 104.949 26.019H109.72ZM113.378 21.6874H116.352L118.737 29.6622H118.781L120.957 21.6874H124.224L126.567 29.6622H126.609L128.848 21.6874H131.527L128.221 32.4663H124.914L122.569 24.2403H122.527L120.225 32.4663H117.023L113.378 21.6874ZM139.598 23.9473C138.74 23.6544 138.113 23.487 137.087 23.487C136.334 23.487 135.434 23.759 135.434 24.6798C135.434 26.3957 140.31 25.3075 140.31 29.1998C140.31 31.7109 138.071 32.7174 135.79 32.7174C134.722 32.7174 133.634 32.5291 132.607 32.2549L132.774 29.9531C133.654 30.3926 134.574 30.6646 135.537 30.6646C136.248 30.6646 137.378 30.3926 137.378 29.3463C137.378 27.2307 132.502 28.6766 132.502 24.7823C132.502 22.4595 134.532 21.4321 136.731 21.4321C138.05 21.4321 138.907 21.6413 139.787 21.8297L139.598 23.9473Z" fill="#001B36" fill-opacity="0.6"/>
</g>
</g>
<defs>
<clipPath id="clip0_199_268">
<rect width="141.167" height="28" fill="white" transform="translate(0 12)"/>
</clipPath>
</defs>
</svg>
