<svg width="119" height="52" viewBox="0 0 119 52" fill="none" xmlns="http://www.w3.org/2000/svg">
<g clip-path="url(#clip0_199_225)">
<g opacity="0.7">
<path d="M107.992 30.5903C109.475 31.8893 111.542 32.5813 113.511 32.4911L114.581 32.4217C115.299 32.3351 116.229 31.9777 116.824 31.5667C117.016 31.4314 117.207 31.2944 117.394 31.1523C117.434 31.123 117.471 31.0899 117.505 31.0534C118.199 30.3249 118.657 29.3918 118.698 28.3772L118.74 28.0564L118.723 27.5846C118.655 26.2595 117.574 25.2293 116.388 24.8061L113.064 23.6423C112.653 23.5065 112.286 23.2648 111.999 22.9417C111.917 22.8503 111.847 22.7495 111.789 22.6416C111.478 22.0068 111.728 21.1431 112.449 20.9402C113.266 20.7165 114.177 20.9246 114.864 21.3998L115.417 21.764C115.417 21.764 115.714 21.9826 115.823 22.0831L116.922 23.0683L118.511 20.8431C117.573 20.0765 116.667 19.7036 115.875 19.5544C114.889 19.3498 113.876 19.3135 112.878 19.4469C112.841 19.4521 112.805 19.4591 112.769 19.4677C111.808 19.6966 110.76 20.0886 110.184 20.9419L109.912 21.3426L109.631 21.8698C109.435 22.5254 109.276 23.2382 109.407 23.932C109.508 24.454 109.669 24.9726 109.999 25.3975C110.077 25.5016 110.229 25.7184 110.229 25.7184L110.804 26.1971L111.893 26.785L113.823 27.4441C114.012 27.5101 114.206 27.5568 114.392 27.6349L115.356 28.0251C115.698 28.1691 115.979 28.4271 116.151 28.7553C116.251 28.9635 116.305 29.1913 116.307 29.4225C116.309 29.6538 116.26 29.8825 116.163 30.0925C116.066 30.3023 115.923 30.4881 115.746 30.6363C115.568 30.7844 115.36 30.8913 115.136 30.9493C114.973 30.9805 114.807 31.0047 114.64 31.0186C114.591 31.0258 114.54 31.0253 114.491 31.017C113.298 30.9094 112.139 30.2955 111.294 29.4577C111.194 29.371 111.083 29.2982 110.988 29.2062L109.824 28.1101L107.992 30.5903Z" fill="#001B36" fill-opacity="0.6"/>
<path d="M95.0531 21.9933C95.1226 22.1268 95.1832 22.2656 95.2335 22.4078L97.8784 28.1659L99.3231 24.7232L98.1993 22.0141L96.8066 22.7356L96.4024 21.6499L100.561 19.3848L104.349 28.0861L106.741 21.9898C106.788 21.8805 106.909 21.6984 106.842 21.584C106.793 21.5094 106.59 21.6464 106.585 21.6499C106.219 21.858 105.484 22.269 105.484 22.269L104.89 21.2302L108.16 19.4802L108.914 21.1417L104.509 32.2313L102.608 32.2227L100.244 26.801C99.8539 27.8537 99.3908 28.8735 98.9363 29.9002C98.9138 29.9385 98.8982 29.9818 98.8809 30.0234L98.064 32.2434L96.0088 32.2418L91.574 22.0869L90.1883 22.7859L89.6992 21.6845L94.0056 19.3848C94.2744 20.2849 94.6265 21.1573 95.0531 21.9933Z" fill="#001B36" fill-opacity="0.6"/>
<mask id="mask0_199_225" style="mask-type:luminance" maskUnits="userSpaceOnUse" x="89" y="19" width="20" height="14">
<g opacity="0.7">
<path d="M95.0531 21.9933C95.1226 22.1268 95.1832 22.2656 95.2335 22.4078L97.8784 28.1659L99.3231 24.7232L98.1993 22.0141L96.8066 22.7356L96.4024 21.6499L100.561 19.3848L104.349 28.0861L106.741 21.9898C106.788 21.8805 106.909 21.6984 106.842 21.584C106.793 21.5094 106.59 21.6464 106.585 21.6499C106.219 21.858 105.484 22.269 105.484 22.269L104.89 21.2302L108.16 19.4802L108.914 21.1417L104.509 32.2313L102.608 32.2227L100.244 26.801C99.8539 27.8537 99.3908 28.8735 98.9363 29.9002C98.9138 29.9385 98.8982 29.9818 98.8809 30.0234L98.064 32.2434L96.0088 32.2418L91.574 22.0869L90.1883 22.7859L89.6992 21.6845L94.0056 19.3848C94.2744 20.2849 94.6265 21.1573 95.0531 21.9933Z" fill="white"/>
</g>
</mask>
<g mask="url(#mask0_199_225)">
<path d="M95.0518 21.9931L53.9943 42.9475L54.0697 43.0953L54.1461 43.2426L95.0518 21.9931ZM95.2322 22.4076L51.7741 37.7767L52.4713 39.748L53.3441 41.6482L95.2322 22.4076ZM97.8771 28.1657L55.9889 47.4063L99.783 142.749L140.382 46.0025L97.8771 28.1657ZM99.3218 24.723L141.827 42.5598L149.269 24.825L141.899 7.05987L99.3218 24.723ZM98.198 22.0139L140.776 4.35077L121.548 -41.9972L76.9939 -18.9153L98.198 22.0139ZM96.8053 22.7354L53.6048 38.8147L71.7702 87.6197L118.009 63.6646L96.8053 22.7354ZM96.4011 21.6497L74.354 -18.8316L39.2623 0.280266L53.2008 37.729L96.4011 21.6497ZM100.56 19.3846L142.825 0.986122L122.729 -45.1781L78.5129 -21.0967L100.56 19.3846ZM104.348 28.0859L62.0832 46.4844L106.561 148.659L147.26 44.9208L104.348 28.0859ZM106.74 21.9896L64.3709 3.83185L64.0892 4.48914L63.8281 5.15484L106.74 21.9896ZM106.84 21.5838L146.526 -1.86622L146.015 -2.7292L145.468 -3.56921L106.84 21.5838ZM106.584 21.6497L129.372 61.7185L130.793 60.9103L132.153 60.0035L106.584 21.6497ZM105.482 22.2689L65.4515 45.124L88.1003 84.7931L127.974 62.5053L105.482 22.2689ZM104.889 21.23L83.1352 -19.4097L41.3705 2.94635L64.8584 44.0852L104.889 21.23ZM108.158 19.48L150.129 0.422119L129.786 -44.3815L86.4045 -21.1597L108.158 19.48ZM108.913 21.1415L151.753 38.1591L158.99 19.9368L150.885 2.08366L108.913 21.1415ZM104.508 32.2311L104.297 78.3264L135.74 78.4699L147.347 49.2487L104.508 32.2311ZM102.607 32.2225L60.3528 50.6458L72.3583 78.1806L102.396 78.3177L102.607 32.2225ZM100.243 26.8008L142.496 8.37748L96.7782 -96.4785L57.0208 10.7797L100.243 26.8008ZM98.935 29.9001L138.621 53.3501L139.994 51.0249L141.088 48.555L98.935 29.9001ZM98.8796 30.0232L56.3296 12.2944L55.9555 13.1923L55.6196 14.1051L98.8796 30.0232ZM98.0627 32.2432L98.0238 78.339L130.208 78.3662L141.323 48.1614L98.0627 32.2432ZM96.0075 32.2416L53.7644 50.6897L65.8274 78.3119L95.9686 78.3372L96.0075 32.2416ZM91.5727 22.0867L133.816 3.63857L114.316 -41.0122L70.8137 -19.07L91.5727 22.0867ZM90.187 22.7857L48.0586 41.4942L67.7115 85.7495L110.946 63.9426L90.187 22.7857ZM89.6979 21.6844L67.9835 -18.9764L30.1719 1.21652L47.5695 40.393L89.6979 21.6844ZM94.0043 19.3846L138.172 6.19392L122.035 -47.842L72.2899 -21.2762L94.0043 19.3846ZM95.0518 21.9931L54.1461 43.2426C53.2697 41.5553 52.4657 39.7325 51.7741 37.7767L95.2322 22.4076L138.69 7.03851C137.898 4.79834 136.972 2.69794 135.958 0.743729L95.0518 21.9931ZM95.2322 22.4076L53.3441 41.6482L55.9889 47.4063L97.8771 28.1657L139.765 8.92521L137.12 3.16708L95.2322 22.4076ZM97.8771 28.1657L140.382 46.0025L141.827 42.5598L99.3218 24.723L56.8169 6.88621L55.3723 10.3289L97.8771 28.1657ZM99.3218 24.723L141.899 7.05987L140.776 4.35077L98.198 22.0139L55.6206 39.677L56.7445 42.3861L99.3218 24.723ZM98.198 22.0139L76.9939 -18.9153L75.6012 -18.1938L96.8053 22.7354L118.009 63.6646L119.402 62.9431L98.198 22.0139ZM96.8053 22.7354L140.005 6.65614L139.601 5.57043L96.4011 21.6497L53.2008 37.729L53.6048 38.8147L96.8053 22.7354ZM96.4011 21.6497L118.448 62.1309L122.607 59.8658L100.56 19.3846L78.5129 -21.0967L74.354 -18.8316L96.4011 21.6497ZM100.56 19.3846L58.2953 37.7831L62.0832 46.4844L104.348 28.0859L146.613 9.68754L142.825 0.986122L100.56 19.3846ZM104.348 28.0859L147.26 44.9208L149.651 38.8244L106.74 21.9896L63.8281 5.15484L61.4364 11.2512L104.348 28.0859ZM106.74 21.9896L149.109 40.1474C148.472 41.6326 147.544 43.4637 148.112 42.3139C148.227 42.0802 149.097 40.3474 149.958 38.071C150.753 35.9607 152.366 31.2956 152.828 25.1086C153.315 18.5761 152.623 8.45278 146.526 -1.86622L106.84 21.5838L67.1551 45.0338C61.0913 34.7721 60.4096 24.7143 60.8916 18.2516C61.3479 12.1344 62.9396 7.54307 63.7086 5.50631C64.5404 3.3034 65.3758 1.64382 65.4574 1.47858C65.9917 0.39711 65.0309 2.29196 64.3709 3.83185L106.74 21.9896ZM106.84 21.5838L145.468 -3.56921C131.579 -24.9013 109.289 -24.9658 102.512 -24.3355C95.0729 -23.6437 89.6491 -21.2749 88.0776 -20.581C85.7741 -19.5641 84.0261 -18.5662 83.1032 -18.0187C82.5706 -17.7028 82.11 -17.4154 81.7354 -17.1754C81.329 -16.9152 81.0019 -16.6959 81.014 -16.7042L106.584 21.6497L132.153 60.0035C132.166 59.9946 131.846 60.2088 131.452 60.461C131.091 60.6931 130.646 60.9698 130.135 61.2736C129.253 61.7967 127.559 62.7643 125.314 63.756C123.8 64.4244 118.436 66.7728 111.049 67.4598C104.323 68.0853 82.0782 68.0315 68.212 46.7367L106.84 21.5838ZM106.584 21.6497L83.7953 -18.4191C83.796 -18.4195 83.7823 -18.4118 83.7509 -18.394C83.7211 -18.3771 83.6834 -18.356 83.6386 -18.3307C83.5481 -18.2797 83.4461 -18.2223 83.3453 -18.1659C83.2456 -18.1099 83.1549 -18.0591 83.0891 -18.0223C83.0564 -18.0041 83.0305 -17.9895 83.0133 -17.9799C83.0048 -17.9751 82.9985 -17.9717 82.9947 -17.9696C82.9928 -17.9686 82.9917 -17.9678 82.9911 -17.9674C82.9911 -17.9674 82.9913 -17.9677 105.482 22.2689C127.974 62.5053 127.974 62.5054 127.974 62.5053C127.974 62.5052 127.974 62.5054 127.974 62.5053C127.974 62.5052 127.975 62.5046 127.975 62.5044C127.976 62.5039 127.976 62.5034 127.977 62.5028C127.98 62.5015 127.982 62.4999 127.986 62.498C127.994 62.494 128.004 62.4884 128.015 62.4816C128.041 62.4678 128.075 62.4486 128.116 62.4251C128.2 62.3784 128.316 62.3133 128.446 62.2404C128.672 62.1135 129.056 61.8979 129.372 61.7185L106.584 21.6497ZM105.482 22.2689L145.513 -0.58638L144.92 -1.62521L104.889 21.23L64.8584 44.0852L65.4515 45.124L105.482 22.2689ZM104.889 21.23L126.644 61.8697L129.913 60.1197L108.158 19.48L86.4045 -21.1597L83.1352 -19.4097L104.889 21.23ZM108.158 19.48L66.1868 38.5378L66.9413 40.1993L108.913 21.1415L150.885 2.08366L150.129 0.422119L108.158 19.48ZM108.913 21.1415L66.0733 4.12392L61.6681 15.2135L104.508 32.2311L147.347 49.2487L151.753 38.1591L108.913 21.1415ZM104.508 32.2311L104.718 -13.8642L102.817 -13.8728L102.607 32.2225L102.396 78.3177L104.297 78.3264L104.508 32.2311ZM102.607 32.2225L144.861 13.7991L142.496 8.37748L100.243 26.8008L57.9888 45.2241L60.3528 50.6458L102.607 32.2225ZM100.243 26.8008L57.0208 10.7797C57.1119 10.5339 57.184 10.3525 57.2251 10.2514C57.2655 10.1518 57.2834 10.1114 57.2645 10.1552C57.2437 10.2034 57.2032 10.2967 57.1191 10.4871C57.077 10.582 57.0324 10.6825 56.9746 10.8128C56.9208 10.9342 56.8523 11.0882 56.7828 11.2452L98.935 29.9001L141.088 48.555C141.258 48.1685 142.454 45.5466 143.465 42.8219L100.243 26.8008ZM98.935 29.9001L59.2499 6.45013C57.7861 8.92737 56.8788 11.0012 56.5143 11.8548C56.3225 12.3039 56.1757 12.6682 56.1625 12.7009C56.1017 12.8511 56.2173 12.5638 56.3296 12.2944L98.8796 30.0232L141.43 47.7522C141.55 47.4619 141.675 47.1537 141.622 47.2828C141.617 47.2944 141.479 47.6377 141.296 48.0659C140.95 48.878 140.062 50.9111 138.621 53.3501L98.935 29.9001ZM98.8796 30.0232L55.6196 14.1051L54.8027 16.3251L98.0627 32.2432L141.323 48.1614L142.14 45.9414L98.8796 30.0232ZM98.0627 32.2432L98.1016 -13.8524L96.0464 -13.8542L96.0075 32.2416L95.9686 78.3372L98.0238 78.339L98.0627 32.2432ZM96.0075 32.2416L138.251 13.7933L133.816 3.63857L91.5727 22.0867L49.3297 40.535L53.7644 50.6897L96.0075 32.2416ZM91.5727 22.0867L70.8137 -19.07L69.428 -18.3711L90.187 22.7857L110.946 63.9426L112.332 63.2435L91.5727 22.0867ZM90.187 22.7857L132.315 4.07713L131.826 2.97581L89.6979 21.6844L47.5695 40.393L48.0586 41.4942L90.187 22.7857ZM89.6979 21.6844L111.412 62.3452L115.719 60.0453L94.0043 19.3846L72.2899 -21.2762L67.9835 -18.9764L89.6979 21.6844ZM94.0043 19.3846L49.8362 32.5753C50.9263 36.2253 52.3327 39.6921 53.9943 42.9475L95.0518 21.9931L136.11 1.03867C136.918 2.62219 137.62 4.34419 138.172 6.19392L94.0043 19.3846Z" fill="#001B36" fill-opacity="0.6"/>
</g>
<path d="M61.8555 15.7977H63.3661L63.3695 30.6942L61.8815 30.6994L61.8797 32.1251L66.9163 32.1216L66.9249 30.689L65.2911 30.6908L65.305 19.2231L74.2508 32.1581L76.3928 32.1702L76.4067 15.7352L77.9086 15.7266L77.9137 14.405L72.7939 14.4067L72.7905 15.7474L74.4988 15.737L74.4972 26.5855L65.9415 14.3599L61.8606 14.3616L61.8555 15.7977Z" fill="#001B36" fill-opacity="0.6"/>
<path d="M56.5535 20.3221C56.2793 20.7991 56.028 21.2882 55.8007 21.7877L50.5543 33.1825C49.9196 34.5683 49.042 35.987 47.5383 36.5299C46.6781 36.8352 45.7276 36.8595 44.8761 36.5039C44.7356 36.4536 44.4285 36.3062 44.4285 36.3062C44.4285 36.3062 44.4823 36.0512 44.5119 35.935L45.0789 33.4549C45.5716 33.682 46.1161 33.7636 46.6537 33.7844C46.7683 33.7757 46.8845 33.76 46.9989 33.7549C47.6875 33.7376 48.3465 33.3838 48.7436 32.8184L49.2865 32.0535L44.8101 22.0565L43.3204 22.7121L42.8867 21.6819L47.3128 19.4532L50.5768 27.055C50.6982 27.3758 50.8197 27.7643 51.0105 28.054C51.1596 28.2795 51.2793 27.7643 51.2793 27.7643L54.3942 20.8945C53.9015 21.0998 53.4198 21.3308 52.9512 21.5865C52.7114 21.205 52.4852 20.8151 52.2731 20.4175L55.7279 18.7803L56.5535 20.3221Z" fill="#001B36" fill-opacity="0.6"/>
<mask id="mask1_199_225" style="mask-type:luminance" maskUnits="userSpaceOnUse" x="42" y="18" width="15" height="19">
<g opacity="0.7">
<path d="M56.5535 20.3221C56.2793 20.7991 56.028 21.2882 55.8007 21.7877L50.5543 33.1825C49.9196 34.5683 49.042 35.987 47.5383 36.5299C46.6781 36.8352 45.7276 36.8595 44.8761 36.5039C44.7356 36.4536 44.4285 36.3062 44.4285 36.3062C44.4285 36.3062 44.4823 36.0512 44.5119 35.935L45.0789 33.4549C45.5716 33.682 46.1161 33.7636 46.6537 33.7844C46.7683 33.7757 46.8845 33.76 46.9989 33.7549C47.6875 33.7376 48.3465 33.3838 48.7436 32.8184L49.2865 32.0535L44.8101 22.0565L43.3204 22.7121L42.8867 21.6819L47.3128 19.4532L50.5768 27.055C50.6982 27.3758 50.8197 27.7643 51.0105 28.054C51.1596 28.2795 51.2793 27.7643 51.2793 27.7643L54.3942 20.8945C53.9015 21.0998 53.4198 21.3308 52.9512 21.5865C52.7114 21.205 52.4852 20.8151 52.2731 20.4175L55.7279 18.7803L56.5535 20.3221Z" fill="white"/>
</g>
</mask>
<g mask="url(#mask1_199_225)">
<path d="M56.5513 20.3224L96.5201 43.2859L109.261 21.1104L97.1887 -1.43596L56.5513 20.3224ZM55.7986 21.7879L97.6695 41.066L97.7139 40.9698L97.7577 40.8733L55.7986 21.7879ZM50.5522 33.1828L8.68134 13.9046L8.6626 13.9453L8.64396 13.9861L50.5522 33.1828ZM47.5362 36.5301L62.9513 79.9719L63.0701 79.9297L63.1889 79.8869L47.5362 36.5301ZM44.874 36.5041L62.6341 -6.03284L61.534 -6.49213L60.4118 -6.89394L44.874 36.5041ZM44.4264 36.3064L-0.677222 26.7947L-8.14289 62.1964L24.4714 77.8589L44.4264 36.3064ZM44.5098 35.9352L89.1897 47.2718L89.324 46.7428L89.4456 46.2106L44.5098 35.9352ZM45.0768 33.4551L64.3846 -8.40215L12.8034 -32.1952L0.140985 23.1797L45.0768 33.4551ZM46.6516 33.7847L44.8687 79.8459L47.504 79.9479L50.1339 79.7486L46.6516 33.7847ZM46.9968 33.7551L45.836 -12.326L45.3696 -12.3143L44.9036 -12.2931L46.9968 33.7551ZM48.7415 32.8186L11.1513 6.13924L11.0863 6.23075L11.0218 6.32259L48.7415 32.8186ZM49.2844 32.0538L86.8747 58.7331L102.119 37.2543L91.3551 13.2156L49.2844 32.0538ZM44.808 22.0568L86.8788 3.21865L68.1617 -38.5816L26.2416 -20.1345L44.808 22.0568ZM43.3183 22.7123L0.831985 40.5935L19.0049 83.773L61.8847 64.9037L43.3183 22.7123ZM42.8846 21.6821L22.1537 -19.4888L-16.3047 -0.123665L0.398397 39.5632L42.8846 21.6821ZM47.3107 19.4535L89.6669 1.26656L70.3373 -43.7509L26.5798 -21.7175L47.3107 19.4535ZM50.5747 27.0552L93.6876 10.7425L93.3298 9.79713L92.931 8.86831L50.5747 27.0552ZM51.0084 28.0542L12.5129 53.4101L12.5382 53.4484L12.5634 53.4867L51.0084 28.0542ZM51.2772 27.7646L9.29528 8.72943L7.41023 12.8869L6.37722 17.3333L51.2772 27.7646ZM54.3921 20.8947L96.3739 39.9299L144.714 -66.6826L36.6608 -21.6543L54.3921 20.8947ZM52.9491 21.5868L13.9186 46.1111L36.9795 82.8125L75.0286 62.0505L52.9491 21.5868ZM52.271 20.4178L32.5305 -21.2372L-11.1639 -0.530151L11.6065 42.1253L52.271 20.4178ZM55.7258 18.7805L96.3631 -2.97777L75.6464 -41.6698L35.9854 -22.8744L55.7258 18.7805ZM56.5513 20.3224L16.5826 -2.64114C15.5967 -0.925011 14.6788 0.8573 13.8394 2.70264L55.7986 21.7879L97.7577 40.8733C97.3728 41.7195 96.9579 42.5237 96.5201 43.2859L56.5513 20.3224ZM55.7986 21.7879L13.9277 2.50978L8.68134 13.9046L50.5522 33.1828L92.4231 52.461L97.6695 41.066L55.7986 21.7879ZM50.5522 33.1828L8.64396 13.9861C9.04112 13.119 10.5801 9.79447 13.6723 6.00942C16.9954 1.94158 22.8686 -3.57209 31.8835 -6.82661L47.5362 36.5301L63.1889 79.8869C83.7 72.4819 91.2642 54.9911 92.4605 52.3795L50.5522 33.1828ZM47.5362 36.5301L32.1211 -6.91175C40.3274 -9.82358 51.3513 -10.7437 62.6341 -6.03284L44.874 36.5041L27.1138 79.0411C40.0997 84.463 53.0245 83.4944 62.9513 79.9719L47.5362 36.5301ZM44.874 36.5041L60.4118 -6.89394C61.7564 -6.41255 62.7638 -5.97651 62.9715 -5.88708C63.3511 -5.72375 63.6379 -5.5934 63.774 -5.53112C63.9306 -5.4595 64.0553 -5.40114 64.1378 -5.36224C64.1827 -5.34101 64.2249 -5.32093 64.2641 -5.30236C64.2839 -5.29288 64.3035 -5.28354 64.3229 -5.27419C64.3327 -5.26952 64.3424 -5.26485 64.3521 -5.26017C64.357 -5.2579 64.362 -5.2555 64.3668 -5.25322C64.3693 -5.25196 64.3717 -5.25082 64.3742 -5.24969C64.3753 -5.24906 64.3766 -5.24855 64.3779 -5.24792C64.3785 -5.24767 64.3794 -5.24716 64.3796 -5.24703C64.3807 -5.24653 64.3815 -5.24615 44.4264 36.3064C24.4714 77.8589 24.4723 77.8594 24.4733 77.8598C24.4736 77.8599 24.4745 77.8604 24.4751 77.8607C24.4764 77.8613 24.4776 77.8619 24.4789 77.8626C24.4814 77.8637 24.4839 77.865 24.4866 77.8662C24.4918 77.8688 24.4971 77.8713 24.5025 77.8739C24.5135 77.8791 24.525 77.8846 24.537 77.8904C24.561 77.9019 24.5873 77.9144 24.6158 77.928C24.6724 77.9549 24.7396 77.9869 24.8155 78.0226C24.9599 78.0907 25.1702 78.1892 25.4211 78.3039C25.6515 78.4094 26.0414 78.586 26.518 78.7911C26.8228 78.9224 27.9212 79.3957 29.3361 79.9022L44.874 36.5041ZM44.4264 36.3064C89.5301 45.8182 89.5301 45.8185 89.53 45.8189C89.53 45.8186 89.53 45.819 89.53 45.8189C89.5299 45.8194 89.5296 45.8208 89.5295 45.8214C89.5292 45.8224 89.529 45.8236 89.5289 45.8246C89.5284 45.8267 89.528 45.8288 89.5275 45.8309C89.5266 45.8349 89.5258 45.839 89.5249 45.8429C89.5233 45.8507 89.5218 45.8581 89.5203 45.8653C89.5172 45.8793 89.5143 45.8932 89.5113 45.9069C89.5061 45.9314 89.4979 45.9694 89.4872 46.0186C89.4782 46.0598 89.4558 46.1613 89.4239 46.3012C89.4066 46.3773 89.3189 46.7626 89.1897 47.2718L44.5098 35.9352L-0.170237 24.5987C-0.397713 25.4952 -0.56881 26.2908 -0.573059 26.3102C-0.600984 26.4378 -0.624387 26.5466 -0.640644 26.6226C-0.649101 26.6621 -0.656474 26.6967 -0.66252 26.7253C-0.665561 26.7395 -0.668317 26.7525 -0.670765 26.7642C-0.671988 26.77 -0.673141 26.7754 -0.67422 26.7805C-0.674755 26.783 -0.675276 26.7855 -0.675776 26.7878C-0.676027 26.789 -0.676272 26.7902 -0.676514 26.7913C-0.676634 26.792 -0.676755 26.7925 -0.67687 26.7931C-0.676929 26.7934 -0.676841 26.793 -0.67687 26.7931C-0.676957 26.7935 -0.677224 26.7947 44.4264 36.3064ZM44.5098 35.9352L89.4456 46.2106L90.0128 43.7305L45.0768 33.4551L0.140985 23.1797L-0.426146 25.6599L44.5098 35.9352ZM45.0768 33.4551L25.7692 75.3124C33.991 79.1049 41.3187 79.7084 44.8687 79.8459L46.6516 33.7847L48.4347 -12.2766C50.9093 -12.1809 57.1478 -11.7403 64.3846 -8.40215L45.0768 33.4551ZM46.6516 33.7847L50.1339 79.7486C50.5975 79.7135 50.9674 79.6787 51.1444 79.6617C51.2351 79.653 51.3101 79.6455 51.3308 79.6435C51.3718 79.6395 51.3367 79.6429 51.3079 79.6458C51.2428 79.6521 50.9783 79.678 50.6309 79.7061C50.2742 79.7349 49.741 79.7737 49.0899 79.8033L46.9968 33.7551L44.9036 -12.2931C44.1953 -12.2608 43.6046 -12.2182 43.1904 -12.1847C42.7855 -12.1518 42.4632 -12.1206 42.3406 -12.1086C42.3058 -12.1052 42.2769 -12.1023 42.2597 -12.1007C42.2509 -12.0998 42.2433 -12.099 42.2389 -12.0985C42.233 -12.098 42.2327 -12.0979 42.2311 -12.0978C42.2231 -12.097 42.2692 -12.1016 42.3312 -12.1075C42.4506 -12.119 42.7631 -12.1487 43.1695 -12.1794L46.6516 33.7847ZM46.9968 33.7551L48.1575 79.8362C63.5054 79.4496 77.7024 71.7838 86.4613 59.3146L48.7415 32.8186L11.0218 6.32259C18.9864 -5.01575 31.8653 -11.9741 45.836 -12.326L46.9968 33.7551ZM48.7415 32.8186L86.3318 59.4979L86.8747 58.7331L49.2844 32.0538L11.6941 5.37438L11.1513 6.13924L48.7415 32.8186ZM49.2844 32.0538L91.3551 13.2156L86.8788 3.21865L44.808 22.0568L2.73735 40.8949L7.21372 50.8919L49.2844 32.0538ZM44.808 22.0568L26.2416 -20.1345L24.7519 -19.4789L43.3183 22.7123L61.8847 64.9037L63.3744 64.248L44.808 22.0568ZM43.3183 22.7123L85.8044 4.8312L85.3709 3.80098L42.8846 21.6821L0.398397 39.5632L0.831985 40.5935L43.3183 22.7123ZM42.8846 21.6821L63.6156 62.8531L68.0417 60.6244L47.3107 19.4535L26.5798 -21.7175L22.1537 -19.4888L42.8846 21.6821ZM47.3107 19.4535L4.95445 37.6403L8.2185 45.2421L50.5747 27.0552L92.931 8.86831L89.6669 1.26656L47.3107 19.4535ZM50.5747 27.0552L7.46197 43.3679C7.36687 43.1166 7.22367 42.7229 7.36868 43.1199C7.43501 43.3016 7.66246 43.9253 7.96664 44.6857C8.47652 45.9605 9.90476 49.4504 12.5129 53.4101L51.0084 28.0542L89.5037 2.69836C90.7935 4.65659 91.7039 6.37692 92.3015 7.60109C92.9038 8.83511 93.3247 9.84751 93.5644 10.4471C93.7992 11.0341 93.9617 11.4825 93.9651 11.492C94.0473 11.7169 93.8433 11.1543 93.6876 10.7425L50.5747 27.0552ZM51.0084 28.0542L12.5634 53.4867C15.0273 57.2111 21.2508 65.4987 32.9599 70.4987C47.0629 76.5212 61.4807 74.6161 72.2234 69.082C81.072 64.5235 86.1006 58.3147 88.1139 55.6143C90.4813 52.439 91.9469 49.6152 92.7104 48.0339C94.2377 44.8701 95.0639 42.2238 95.3754 41.1947C95.5837 40.5064 95.7479 39.9077 95.8714 39.4344C95.9348 39.1919 95.9914 38.9672 96.0416 38.7629C96.0668 38.6603 96.0906 38.5618 96.1132 38.4675C96.1244 38.4203 96.1354 38.3741 96.146 38.3289C96.1514 38.3062 96.1566 38.2838 96.1618 38.2617C96.1644 38.2506 96.167 38.2396 96.1695 38.2286C96.1708 38.2232 96.1727 38.215 96.1733 38.2122C96.1752 38.204 96.1771 38.1959 51.2772 27.7646C6.37721 17.3333 6.37911 17.3252 6.38101 17.317C6.38164 17.3143 6.38355 17.3061 6.38482 17.3007C6.38737 17.2897 6.38994 17.2788 6.39252 17.2677C6.39767 17.2457 6.40287 17.2235 6.40814 17.2011C6.41867 17.1564 6.42946 17.1109 6.44049 17.0646C6.46253 16.9723 6.48569 16.8766 6.50995 16.7778C6.55828 16.5809 6.61222 16.367 6.67199 16.1382C6.78848 15.6921 6.94212 15.1319 7.13688 14.4884C7.42125 13.5488 8.20828 11.0172 9.68703 7.95403C10.4261 6.42306 11.8652 3.64595 14.204 0.508919C16.1887 -2.15293 21.1867 -8.33179 30.0033 -12.8737C34.7842 -15.3368 40.9863 -17.4609 48.3254 -17.9016C55.8076 -18.3509 62.9231 -16.9515 69.1656 -14.2857C80.8396 -9.30051 87.0267 -1.04627 89.4532 2.62185L51.0084 28.0542ZM51.2772 27.7646L93.2591 46.7998L96.3739 39.9299L54.3921 20.8947L12.4102 1.85956L9.29528 8.72943L51.2772 27.7646ZM54.3921 20.8947L36.6608 -21.6543C34.6833 -20.8302 32.7502 -19.9032 30.8696 -18.877L52.9491 21.5868L75.0286 62.0505C74.0851 62.5652 73.1154 63.0303 72.1233 63.4438L54.3921 20.8947ZM52.9491 21.5868L91.9795 -2.93748C92.3175 -2.39962 92.6364 -1.85002 92.9355 -1.28981L52.271 20.4178L11.6065 42.1253C12.33 43.4806 13.1011 44.81 13.9186 46.1111L52.9491 21.5868ZM52.271 20.4178L72.0114 62.0727L75.4661 60.4354L55.7258 18.7805L35.9854 -22.8744L32.5305 -21.2372L52.271 20.4178ZM55.7258 18.7805L15.0884 40.5388L15.914 42.0807L56.5513 20.3224L97.1887 -1.43596L96.3631 -2.97777L55.7258 18.7805Z" fill="#001B36" fill-opacity="0.6"/>
</g>
<path d="M37.4194 32.1243L43.5018 32.1259L43.4966 30.9691L42.1473 30.9761L42.1386 15.5644L43.3284 15.1412L43.3249 14L37.4542 16.0223V17.0872L38.7289 16.664L38.7393 31.0246L37.4212 31.0178L37.4194 32.1243ZM30.3555 22.1221L31.7429 21.6538L31.7377 31.0125H30.4127L30.4145 32.1017L36.4933 32.0965L36.4899 30.9761H35.1926L35.1978 19.4199L30.692 20.8282L30.3658 20.9167L30.3641 21.2913L30.3555 22.1221Z" fill="#001B36" fill-opacity="0.6"/>
<mask id="mask2_199_225" style="mask-type:luminance" maskUnits="userSpaceOnUse" x="0" y="14" width="90" height="19">
<g opacity="0.7">
<path d="M34.9836 15.3689C35.1162 15.6999 35.1657 16.0584 35.128 16.413C35.0902 16.7677 34.9661 17.1076 34.7668 17.4033C34.6905 17.5299 34.4546 17.7381 34.4546 17.7381C34.4546 17.7381 34.236 17.8681 34.1112 17.9219C33.3204 18.2653 32.2867 18.1213 31.7091 17.4449C31.6411 17.3665 31.5808 17.2817 31.5287 17.1917C31.3528 16.8881 31.2609 16.5431 31.2627 16.1922C31.2646 15.8413 31.36 15.4972 31.5392 15.1955C31.8392 14.6942 32.3664 14.3473 32.9457 14.2658C33.6516 14.1288 34.3957 14.4341 34.8032 15.029C34.8725 15.1347 34.9351 15.2492 34.9836 15.3689ZM89.3693 28.8503L88.9947 28.4826L88.3721 29.0497L87.6905 29.5474C86.6672 30.1666 85.3908 30.3176 84.227 30.0434C84.0389 29.9957 83.8555 29.9313 83.6789 29.8509C83.0729 29.5732 82.5321 29.1709 82.0917 28.6704C81.6512 28.1699 81.321 27.5823 81.1226 26.9458L89.3416 26.9493L89.359 25.1577C89.3121 23.1597 88.4779 20.9761 86.6239 19.9979C86.3239 19.8297 85.6665 19.6268 85.6665 19.6268L85.2555 19.5019C85.2555 19.5019 85.0248 19.4412 84.4698 19.4152C83.9148 19.3892 83.4483 19.4083 83.4483 19.4083C83.4483 19.4083 82.9176 19.4377 82.7615 19.4655C81.8039 19.5871 80.898 19.9692 80.1426 20.5703C79.5911 20.9952 79.0778 21.4531 78.717 22.0566C78.4186 22.5475 78.1048 23.0227 77.9331 23.576C77.8775 23.7511 77.8377 23.9142 77.7821 24.0893C77.4098 25.295 77.3673 26.5784 77.659 27.8061C77.9378 28.9392 78.535 29.9689 79.3802 30.7734C80.2253 31.5781 81.2831 32.124 82.4285 32.3467C82.5829 32.3762 82.7407 32.4005 82.8968 32.4283C83.457 32.5201 83.9374 32.475 84.4785 32.4456C85.1508 32.4071 85.8139 32.2709 86.447 32.0415L87.3315 31.6426L88.164 31.1136C88.164 31.1136 89.1093 30.4528 89.8255 29.3445C89.836 29.3341 89.3693 28.8503 89.3693 28.8503ZM80.5224 24.7814L80.4964 24.2194L80.5467 23.7841C80.9352 22.2405 81.596 21.5589 82.477 21.1652C82.836 21.0039 83.2852 20.9675 83.2852 20.9675C83.2852 20.9675 83.6078 20.931 83.7743 20.9241C84.2506 20.9182 84.7208 21.0313 85.1423 21.2529C85.5638 21.4746 85.9234 21.798 86.1886 22.1937C86.4175 22.5492 86.5857 22.9429 86.6846 23.3522C86.8736 24.0616 86.9638 24.8178 86.9204 25.5514L80.7028 25.5462L80.5224 24.7814ZM27.9802 31.0129L27.9907 23.0175C27.9854 22.57 27.871 22.1538 27.7583 21.7288C27.5692 20.9848 27.0177 20.3309 26.3586 19.9528C26.2161 19.8705 26.0685 19.7975 25.9164 19.7343L25.4429 19.5886C25.4429 19.5886 24.966 19.4672 24.8064 19.4585C23.5161 19.3961 22.1893 19.6251 21.0464 20.246C20.9839 20.2824 20.8642 20.3795 20.7931 20.3865C20.5382 20.4107 20.7828 19.7499 20.7828 19.7499C20.7828 19.7499 20.4359 19.658 20.4133 19.6407L19.4594 19.4291L18.5298 22.8735L19.5358 23.1285C19.6485 23.1597 19.7786 23.1823 19.7786 23.1823C19.7786 23.1823 20.252 22.3567 20.4514 22.1451L20.8018 21.7965C21.2874 21.3317 21.9465 21.1374 22.6176 21.1305C23.3479 21.1305 24.045 21.4912 24.3277 22.1902C24.5601 22.766 24.6608 23.3939 24.6157 24.0148L22.9941 24.0616C22.7962 24.0668 22.5968 24.0755 22.3973 24.0841C22.3621 24.0861 22.3267 24.089 22.2916 24.0928L20.7844 24.32C20.4583 24.3708 20.1397 24.4617 19.8358 24.5906C19.697 24.6478 19.5617 24.712 19.4212 24.7623C19.0258 24.9097 18.6581 25.1265 18.3477 25.3988C16.681 26.8383 16.6012 29.5075 17.902 31.1933C18.0026 31.3252 18.117 31.4466 18.2489 31.5489C18.9321 32.064 19.7525 32.3866 20.604 32.475L21.1018 32.4907C21.8438 32.5771 22.5953 32.4596 23.2755 32.1509C23.9557 31.8423 24.5389 31.3541 24.9626 30.7389L25.2695 32.0935L29.1597 32.0848L29.1631 31.0043L27.9802 31.0129ZM24.6225 28.6351C24.6128 28.9557 24.5053 29.2656 24.3143 29.5233C24.1233 29.7808 23.8581 29.9738 23.5543 30.0764C22.9738 30.2565 22.355 30.2727 21.7661 30.1233C21.5639 30.0621 21.379 29.954 21.2268 29.8076C20.8315 29.45 20.5744 28.9652 20.5001 28.4375C20.4287 28.0399 20.4205 27.6337 20.4757 27.2338C20.6354 26.3544 21.3307 25.6364 22.2032 25.4526C22.5586 25.3971 22.9142 25.3572 23.2732 25.3312H23.3443L24.6624 25.3953C24.6624 25.3953 24.6538 27.5564 24.6225 28.6351ZM16.988 22.6984L16.9723 22.5215C16.9723 22.5215 16.8821 21.8832 16.8128 21.5277C16.8128 21.5277 16.7226 20.8634 16.452 20.05C16.1815 19.2365 15.8277 18.6694 15.8277 18.6694C15.7012 18.4392 15.5592 18.2179 15.4027 18.0069L14.9848 17.4432C13.6944 15.7869 11.6392 14.7913 9.57536 14.5433L8.36131 14.4098L0.0763114 14.4271L0.0797802 15.8562L1.60948 15.8632L1.59387 30.7441C1.59214 30.758 0 30.7423 0 30.7423L0.00867175 32.1472L6.17949 32.1629C8.09769 32.1889 10.0037 32.005 11.8387 31.4223C12.0052 31.3703 12.1803 31.3148 12.3382 31.2367L12.6624 31.0945C14.0066 30.4354 15.16 29.4242 15.8918 28.1149L16.2561 27.4593L16.2613 27.4488C16.8821 25.9486 17.0989 24.3096 16.988 22.6984ZM13.0683 24.1639C13.0406 24.3966 13.0232 24.6304 13.0162 24.8646C12.9326 26.2723 12.4535 27.6279 11.634 28.7756L11.3947 29.0462C10.3471 30.1753 8.85039 30.7338 7.32936 30.7233L5.23948 30.7441L5.24987 15.8216L7.68837 15.825C8.75847 15.943 9.78694 16.354 10.6281 17.0252C12.0277 18.1491 12.744 19.9025 12.9765 21.6421C13.0025 21.8381 13.0041 22.0376 13.0337 22.2318C13.1239 22.8718 13.1464 23.5239 13.0683 24.1639Z" fill="white"/>
</g>
</mask>
<g mask="url(#mask2_199_225)">
<path d="M34.9836 15.3689C35.1162 15.6999 35.1657 16.0584 35.128 16.413C35.0902 16.7677 34.9661 17.1076 34.7668 17.4033C34.6905 17.5299 34.4546 17.7381 34.4546 17.7381C34.4546 17.7381 34.236 17.8681 34.1112 17.9219C33.3204 18.2653 32.2867 18.1213 31.7091 17.4449C31.6411 17.3665 31.5808 17.2817 31.5287 17.1917C31.3528 16.8881 31.2609 16.5431 31.2627 16.1922C31.2646 15.8413 31.36 15.4972 31.5392 15.1955C31.8392 14.6942 32.3664 14.3473 32.9457 14.2658C33.6516 14.1288 34.3957 14.4341 34.8032 15.029C34.8725 15.1347 34.9351 15.2492 34.9836 15.3689ZM89.3693 28.8503L88.9947 28.4826L88.3721 29.0497L87.6905 29.5474C86.6672 30.1666 85.3908 30.3176 84.227 30.0434C84.0389 29.9957 83.8555 29.9313 83.6789 29.8509C83.0729 29.5732 82.5321 29.1709 82.0917 28.6704C81.6512 28.1699 81.321 27.5823 81.1226 26.9458L89.3416 26.9493L89.359 25.1577C89.3121 23.1597 88.4779 20.9761 86.6239 19.9979C86.3239 19.8297 85.6665 19.6268 85.6665 19.6268L85.2555 19.5019C85.2555 19.5019 85.0248 19.4412 84.4698 19.4152C83.9148 19.3892 83.4483 19.4083 83.4483 19.4083C83.4483 19.4083 82.9176 19.4377 82.7615 19.4655C81.8039 19.5871 80.898 19.9692 80.1426 20.5703C79.5911 20.9952 79.0778 21.4531 78.717 22.0566C78.4186 22.5475 78.1048 23.0227 77.9331 23.576C77.8775 23.7511 77.8377 23.9142 77.7821 24.0893C77.4098 25.295 77.3673 26.5784 77.659 27.8061C77.9378 28.9392 78.535 29.9689 79.3802 30.7734C80.2253 31.5781 81.2831 32.124 82.4285 32.3467C82.5829 32.3762 82.7407 32.4005 82.8968 32.4283C83.457 32.5201 83.9374 32.475 84.4785 32.4456C85.1508 32.4071 85.8139 32.2709 86.447 32.0415L87.3315 31.6426L88.164 31.1136C88.164 31.1136 89.1093 30.4528 89.8255 29.3445C89.836 29.3341 89.3693 28.8503 89.3693 28.8503ZM80.5224 24.7814L80.4964 24.2194L80.5467 23.7841C80.9352 22.2405 81.596 21.5589 82.477 21.1652C82.836 21.0039 83.2852 20.9675 83.2852 20.9675C83.2852 20.9675 83.6078 20.931 83.7743 20.9241C84.2506 20.9182 84.7208 21.0313 85.1423 21.2529C85.5638 21.4746 85.9234 21.798 86.1886 22.1937C86.4175 22.5492 86.5857 22.9429 86.6846 23.3522C86.8736 24.0616 86.9638 24.8178 86.9204 25.5514L80.7028 25.5462L80.5224 24.7814ZM27.9802 31.0129L27.9907 23.0175C27.9854 22.57 27.871 22.1538 27.7583 21.7288C27.5692 20.9848 27.0177 20.3309 26.3586 19.9528C26.2161 19.8705 26.0685 19.7975 25.9164 19.7343L25.4429 19.5886C25.4429 19.5886 24.966 19.4672 24.8064 19.4585C23.5161 19.3961 22.1893 19.6251 21.0464 20.246C20.9839 20.2824 20.8642 20.3795 20.7931 20.3865C20.5382 20.4107 20.7828 19.7499 20.7828 19.7499C20.7828 19.7499 20.4359 19.658 20.4133 19.6407L19.4594 19.4291L18.5298 22.8735L19.5358 23.1285C19.6485 23.1597 19.7786 23.1823 19.7786 23.1823C19.7786 23.1823 20.252 22.3567 20.4514 22.1451L20.8018 21.7965C21.2874 21.3317 21.9465 21.1374 22.6176 21.1305C23.3479 21.1305 24.045 21.4912 24.3277 22.1902C24.5601 22.766 24.6608 23.3939 24.6157 24.0148L22.9941 24.0616C22.7962 24.0668 22.5968 24.0755 22.3973 24.0841C22.3621 24.0861 22.3267 24.089 22.2916 24.0928L20.7844 24.32C20.4583 24.3708 20.1397 24.4617 19.8358 24.5906C19.697 24.6478 19.5617 24.712 19.4212 24.7623C19.0258 24.9097 18.6581 25.1265 18.3477 25.3988C16.681 26.8383 16.6012 29.5075 17.902 31.1933C18.0026 31.3252 18.117 31.4466 18.2489 31.5489C18.9321 32.064 19.7525 32.3866 20.604 32.475L21.1018 32.4907C21.8438 32.5771 22.5953 32.4596 23.2755 32.1509C23.9557 31.8423 24.5389 31.3541 24.9626 30.7389L25.2695 32.0935L29.1597 32.0848L29.1631 31.0043L27.9802 31.0129ZM24.6225 28.6351C24.6128 28.9557 24.5053 29.2656 24.3143 29.5233C24.1233 29.7808 23.8581 29.9738 23.5543 30.0764C22.9738 30.2565 22.355 30.2727 21.7661 30.1233C21.5639 30.0621 21.379 29.954 21.2268 29.8076C20.8315 29.45 20.5744 28.9652 20.5001 28.4375C20.4287 28.0399 20.4205 27.6337 20.4757 27.2338C20.6354 26.3544 21.3307 25.6364 22.2032 25.4526C22.5586 25.3971 22.9142 25.3572 23.2732 25.3312H23.3443L24.6624 25.3953C24.6624 25.3953 24.6538 27.5564 24.6225 28.6351ZM16.988 22.6984L16.9723 22.5215C16.9723 22.5215 16.8821 21.8832 16.8128 21.5277C16.8128 21.5277 16.7226 20.8634 16.452 20.05C16.1815 19.2365 15.8277 18.6694 15.8277 18.6694C15.7012 18.4392 15.5592 18.2179 15.4027 18.0069L14.9848 17.4432C13.6944 15.7869 11.6392 14.7913 9.57536 14.5433L8.36131 14.4098L0.0763114 14.4271L0.0797802 15.8562L1.60948 15.8632L1.59387 30.7441C1.59214 30.758 0 30.7423 0 30.7423L0.00867175 32.1472L6.17949 32.1629C8.09769 32.1889 10.0037 32.005 11.8387 31.4223C12.0052 31.3703 12.1803 31.3148 12.3382 31.2367L12.6624 31.0945C14.0066 30.4354 15.16 29.4242 15.8918 28.1149L16.2561 27.4593L16.2613 27.4488C16.8821 25.9486 17.0989 24.3096 16.988 22.6984ZM13.0683 24.1639C13.0406 24.3966 13.0232 24.6304 13.0162 24.8646C12.9326 26.2723 12.4535 27.6279 11.634 28.7756L11.3947 29.0462C10.3471 30.1753 8.85039 30.7338 7.32936 30.7233L5.23948 30.7441L5.24987 15.8216L7.68837 15.825C8.75847 15.943 9.78694 16.354 10.6281 17.0252C12.0277 18.1491 12.744 19.9025 12.9765 21.6421C13.0025 21.8381 13.0041 22.0376 13.0337 22.2318C13.1239 22.8718 13.1464 23.5239 13.0683 24.1639Z" fill="#001B36" fill-opacity="0.6" stroke="#001B36" stroke-opacity="0.6" stroke-width="92.1915"/>
</g>
</g>
</g>
<defs>
<clipPath id="clip0_199_225">
<rect width="118.737" height="24" fill="white" transform="translate(0 14)"/>
</clipPath>
</defs>
</svg>
