<svg width="48" height="48" viewBox="0 0 48 48" fill="none" xmlns="http://www.w3.org/2000/svg">
<g clip-path="url(#clip0_199_509)">
<path d="M47.4 0H32.7929C32.4615 0 32.1929 0.268652 32.1929 0.6C32.1929 16.1265 18.9114 18.271 15.8071 18.5598V0.6C15.8071 0.268652 15.5385 0 15.2071 0H0.6C0.268652 0 0 0.268652 0 0.6V6.60058C0 6.93194 0.268652 7.20058 0.6 7.20058H14.6071V19.2026C14.6071 19.3652 14.673 19.5208 14.7899 19.6339C14.9022 19.7423 15.0518 19.8026 15.2071 19.8026C15.2138 19.8026 15.2206 19.8026 15.2274 19.8023C15.3841 19.797 28.8044 19.1862 32.4744 7.20058H47.4C47.7314 7.20058 48 6.93194 48 6.60058V0.6C48 0.268652 47.7314 0 47.4 0ZM14.6071 6.00058H1.2V1.2H14.6071V6.00058ZM46.8 6.00058H32.7993C33.1412 4.55625 33.3481 2.96162 33.3864 1.2H46.8V6.00058Z" fill="#FFA437"/>
<path d="M47.4 40.7995H33.3929V28.7974C33.3929 28.6349 33.327 28.4793 33.2101 28.3662C33.0932 28.2531 32.9411 28.1969 32.7726 28.1978C32.6159 28.203 19.1956 28.8138 15.5256 40.7995H0.6C0.268652 40.7995 0 41.0682 0 41.3995V47.4001C0 47.7314 0.268652 48.0001 0.6 48.0001H15.2071C15.5385 48.0001 15.8071 47.7314 15.8071 47.4001C15.8071 31.8736 29.0886 29.7291 32.1929 29.4402V47.4001C32.1929 47.7314 32.4615 48.0001 32.7929 48.0001H47.4C47.7314 48.0001 48 47.7314 48 47.4001V41.3995C48 41.0682 47.7314 40.7995 47.4 40.7995ZM14.6136 46.8001H1.2V41.9995H15.2007C14.8588 43.4438 14.6519 45.0385 14.6136 46.8001ZM46.8 46.8001H33.3929V41.9995H46.8V46.8001Z" fill="#FFA437"/>
</g>
<defs>
<clipPath id="clip0_199_509">
<rect width="48" height="48" fill="white"/>
</clipPath>
</defs>
</svg>
