<svg width="50" height="50" viewBox="0 0 50 50" fill="none" xmlns="http://www.w3.org/2000/svg">
<path d="M12.7344 36.9878V43.9034" stroke="#FFA437" stroke-width="1.5" stroke-linecap="round" stroke-linejoin="round"/>
<path d="M12.7344 29.2104V33.8544" stroke="#FFA437" stroke-width="1.5" stroke-linecap="round" stroke-linejoin="round"/>
<path d="M15.6475 44.4061L15.0619 44.0725C14.8651 43.9609 14.6407 43.9009 14.4127 43.9009H11.0551C10.8271 43.9009 10.6027 43.9597 10.4059 44.0725L9.82031 44.4061" stroke="#FFA437" stroke-width="1.5" stroke-linecap="round" stroke-linejoin="round"/>
<path d="M36.7656 36.9878V43.9034" stroke="#FFA437" stroke-width="1.5" stroke-linecap="round" stroke-linejoin="round"/>
<path d="M36.7656 29.2104V34.1688" stroke="#FFA437" stroke-width="1.5" stroke-linecap="round" stroke-linejoin="round"/>
<path d="M39.68 44.4061L39.0944 44.0725C38.8976 43.9609 38.6732 43.9009 38.444 43.9009H35.0864C34.8584 43.9009 34.634 43.9597 34.4372 44.0725L33.8516 44.4061" stroke="#FFA437" stroke-width="1.5" stroke-linecap="round" stroke-linejoin="round"/>
<path d="M7.65625 3.49951H11.5863" stroke="#FFA437" stroke-width="1.5" stroke-linecap="round" stroke-linejoin="round"/>
<path d="M31.9297 3.49951H35.8597" stroke="#FFA437" stroke-width="1.5" stroke-linecap="round" stroke-linejoin="round"/>
<path d="M17.7472 36.9875H7.71763C6.91603 36.9875 6.26562 36.3563 6.26562 35.5787C6.26562 34.8011 6.91603 34.1699 7.71763 34.1699H17.7472C18.5488 34.1699 19.1992 34.8011 19.1992 35.5787C19.1992 36.3563 18.5488 36.9875 17.7472 36.9875Z" stroke="#FFA437" stroke-width="1.5" stroke-linecap="round" stroke-linejoin="round"/>
<path d="M41.7824 36.9875H31.7528C30.9512 36.9875 30.3008 36.3563 30.3008 35.5787C30.3008 34.8011 30.9512 34.1699 31.7528 34.1699H41.7824C42.584 34.1699 43.2344 34.8011 43.2344 35.5787C43.2344 36.3563 42.584 36.9875 41.7824 36.9875Z" stroke="#FFA437" stroke-width="1.5" stroke-linecap="round" stroke-linejoin="round"/>
<path d="M44.3772 18.9589H47.778C48.3144 18.9589 48.75 18.5365 48.75 18.0157V15.2533C48.75 14.7325 48.3144 14.3101 47.778 14.3101H1.722C1.1856 14.3101 0.75 14.7325 0.75 15.2533V18.0157C0.75 18.5365 1.1856 18.9589 1.722 18.9589H5.0952" stroke="#FFA437" stroke-width="1.5" stroke-linecap="round" stroke-linejoin="round"/>
<path d="M20.3672 18.959H29.1368" stroke="#FFA437" stroke-width="1.5" stroke-linecap="round" stroke-linejoin="round"/>
<path d="M4.41016 7.8335V11.8715" stroke="#FFA437" stroke-width="1.5" stroke-linecap="round" stroke-linejoin="round"/>
<path d="M21.0434 11.8716V1.7556C21.0434 1.2 20.5802 0.75 20.0078 0.75H5.44576C4.87336 0.75 4.41016 1.2 4.41016 1.7556V8.21159" stroke="#FFA437" stroke-width="1.5" stroke-linecap="round" stroke-linejoin="round"/>
<path d="M45.0824 11.8716V1.7556C45.0824 1.2 44.6192 0.75 44.0468 0.75H29.4848C28.9124 0.75 28.4492 1.2 28.4492 1.7556V11.7588" stroke="#FFA437" stroke-width="1.5" stroke-linecap="round" stroke-linejoin="round"/>
<path d="M21.5449 14.3088C22.3525 14.0772 22.9417 13.3536 22.9417 12.4956C22.9417 12.1512 22.6537 11.8716 22.2985 11.8716H3.15492C2.79972 11.8716 2.51172 12.1512 2.51172 12.4956C2.51172 13.3536 3.10092 14.0772 3.90852 14.3088" stroke="#FFA437" stroke-width="1.5" stroke-linecap="round" stroke-linejoin="round"/>
<path d="M45.584 14.3088C46.3916 14.0772 46.9808 13.3536 46.9808 12.4956C46.9808 12.1512 46.6928 11.8716 46.3376 11.8716H27.194C26.8388 11.8716 26.5508 12.1512 26.5508 12.4956C26.5508 13.3536 27.14 14.0772 27.9476 14.3088" stroke="#FFA437" stroke-width="1.5" stroke-linecap="round" stroke-linejoin="round"/>
<path d="M18.2718 29.2102H7.19944C6.03424 29.2102 5.08984 28.2934 5.08984 27.163V19.1878C5.08984 18.0574 6.03424 17.1406 7.19944 17.1406H18.2718C19.437 17.1406 20.3802 18.0574 20.3802 19.1878V27.163C20.3802 28.2934 19.4358 29.2102 18.2718 29.2102Z" stroke="#FFA437" stroke-width="1.5" stroke-linecap="round" stroke-linejoin="round"/>
<path d="M42.3031 29.2102H31.2307C30.0655 29.2102 29.1211 28.2934 29.1211 27.163V19.1878C29.1211 18.0574 30.0655 17.1406 31.2307 17.1406H42.3031C43.4683 17.1406 44.4127 18.0574 44.4127 19.1878V27.163C44.4127 28.2934 43.4683 29.2102 42.3031 29.2102Z" stroke="#FFA437" stroke-width="1.5" stroke-linecap="round" stroke-linejoin="round"/>
<path d="M47.375 48.7502V18.959" stroke="#FFA437" stroke-width="1.5" stroke-linecap="round" stroke-linejoin="round"/>
<path d="M2.125 48.7502V18.959" stroke="#FFA437" stroke-width="1.5" stroke-linecap="round" stroke-linejoin="round"/>
<path d="M47.4492 48.7502V18.959" stroke="#FFA437" stroke-width="1.5" stroke-linecap="round" stroke-linejoin="round"/>
</svg>
