<svg width="128" height="128" viewBox="0 0 128 128" fill="none" xmlns="http://www.w3.org/2000/svg">
<g clip-path="url(#clip0_219_2120)">
<path d="M119.971 16.0002H54.0293C51.9191 15.9843 49.8888 16.8059 48.3836 18.2849C46.8784 19.7639 46.0212 21.7794 46 23.8896V66.0044C46 70.5654 49.2559 74.0051 53.5732 74.0051H70V86.0061C70 86.3696 70.0991 86.7263 70.2866 87.0378C70.4742 87.3493 70.7431 87.6037 71.0645 87.7738C71.3866 87.9412 71.7479 88.019 72.1104 87.9989C72.4729 87.9788 72.8233 87.8616 73.125 87.6595L93.1895 74.0051H120.471C122.511 73.886 124.427 72.9907 125.828 71.5028C127.228 70.0149 128.005 68.0474 128 66.0044V23.8896C127.979 21.7794 127.122 19.7639 125.616 18.2849C124.111 16.8059 122.081 15.9843 119.971 16.0002ZM124 66.0044C124 66.9933 123.637 67.9478 122.978 68.6856C122.32 69.4235 121.413 69.8931 120.43 70.0047H92.5732C92.172 70.0049 91.78 70.1256 91.4482 70.3514L74 82.2255V72.0049C74 71.4745 73.7893 70.9658 73.4142 70.5907C73.0392 70.2155 72.5304 70.0048 72 70.0047H53.5732C51.2275 70.0047 50 67.9919 50 66.0044V23.8896C50.0201 22.84 50.4555 21.8413 51.2108 21.1122C51.9661 20.3832 52.9797 19.9835 54.0293 20.0006H119.971C121.02 19.9835 122.034 20.3832 122.789 21.1122C123.544 21.8413 123.98 22.84 124 23.8896V66.0044Z" fill="#001B36"/>
<path d="M88.0142 28.0567C86.7468 27.9164 85.4641 28.0441 84.2494 28.4316C83.0346 28.8191 81.9149 29.4577 80.9629 30.3059C80.0326 31.1394 79.2881 32.1592 78.7776 33.2992C78.2672 34.4391 78.0022 35.6737 78 36.9227C78 37.4531 78.2107 37.9618 78.5858 38.3369C78.9609 38.712 79.4696 38.9227 80 38.9227C80.5304 38.9227 81.0391 38.712 81.4142 38.3369C81.7893 37.9618 82 37.4531 82 36.9227C82.0019 36.2355 82.1484 35.5564 82.4298 34.9294C82.7113 34.3025 83.1215 33.7418 83.6338 33.2837C84.165 32.8068 84.7918 32.4486 85.4724 32.2331C86.1529 32.0175 86.8716 31.9495 87.5806 32.0336C88.7005 32.1322 89.7511 32.6177 90.552 33.4067C91.3528 34.1957 91.854 35.2389 91.9692 36.3573C92.0943 37.4621 91.8407 38.5767 91.25 39.5186C90.6817 40.3077 90.0167 41.0223 89.2705 41.6458C88.7295 42.1429 88.1699 42.6585 87.645 43.2397C85.9155 45.1563 84.9713 47.654 85.0005 50.2354V54.0033C85.0005 54.5337 85.2112 55.0424 85.5863 55.4175C85.9613 55.7926 86.4701 56.0033 87.0005 56.0033C87.5309 56.0033 88.0396 55.7926 88.4147 55.4175C88.7898 55.0424 89.0005 54.5337 89.0005 54.0033V50.2354C88.9688 48.6436 89.5462 47.0998 90.6148 45.9196C91.0147 45.4762 91.4829 45.0455 91.9785 44.5894C92.9899 43.7353 93.882 42.7492 94.6309 41.6575C95.438 40.3764 95.905 38.9107 95.9878 37.3988C96.0706 35.887 95.7664 34.379 95.104 33.0175C94.4416 31.6559 93.4429 30.4858 92.2023 29.6178C90.9617 28.7497 89.5202 28.2125 88.0142 28.0567Z" fill="#001B36"/>
<path d="M87 64.0039C88.1046 64.0039 89 63.1085 89 62.0039C89 60.8993 88.1046 60.0039 87 60.0039C85.8954 60.0039 85 60.8993 85 62.0039C85 63.1085 85.8954 64.0039 87 64.0039Z" fill="#001B36"/>
<path d="M78.3903 88.9144L75.3755 90.966C74.3802 91.6447 73.2027 92.006 71.998 92.0022C71.2102 92.0033 70.4299 91.8489 69.7018 91.548C68.9737 91.2471 68.3122 90.8055 67.755 90.2485C67.1979 89.6915 66.7561 89.0301 66.4549 88.3021C66.1538 87.5741 65.9992 86.7939 66 86.006V78.005H53.5732C50.7132 78.0149 47.9555 76.9414 45.855 75.0003H20C19.4695 75.0003 18.9608 74.7896 18.5857 74.4145C18.2106 74.0394 17.9999 73.5306 17.9999 73.0001C17.9999 72.4697 18.2106 71.9609 18.5857 71.5858C18.9608 71.2107 19.4695 71 20 71H43.0247C42.4792 69.7302 42.1488 68.3785 42.047 67.0003H20C19.4695 67.0003 18.9608 66.7896 18.5857 66.4145C18.2106 66.0394 17.9999 65.5306 17.9999 65.0001C17.9999 64.4697 18.2106 63.9609 18.5857 63.5858C18.9608 63.2107 19.4695 63 20 63H42V59.0003H20C19.4695 59.0003 18.9608 58.7896 18.5857 58.4145C18.2106 58.0394 17.9999 57.5306 17.9999 57.0001C17.9999 56.4697 18.2106 55.9609 18.5857 55.5858C18.9608 55.2107 19.4695 55 20 55H42V40.0022H8.02931C5.91914 39.9862 3.88879 40.8079 2.38357 42.2868C0.878354 43.7658 0.0211639 45.7814 9.23641e-06 47.8915V90.0063C-0.00310296 92.0557 0.78038 94.0281 2.18887 95.5168C3.59735 97.0054 5.52342 97.8968 7.56983 98.007H34.811C34.811 98.007 54.857 111.649 54.875 111.662C55.1777 111.861 55.5279 111.977 55.8899 111.997C56.2518 112.017 56.6127 111.941 56.9356 111.776C57.2569 111.606 57.5258 111.351 57.7134 111.04C57.9009 110.728 58 110.372 58 110.008V98.007H74.4268C78.7441 98.007 82 94.5674 82 90.0064V86.4582L78.3903 88.9144ZM62 83.0003H20C19.4695 83.0003 18.9608 82.7896 18.5857 82.4145C18.2106 82.0394 17.9999 81.5306 17.9999 81.0001C17.9999 80.4697 18.2106 79.9609 18.5857 79.5858C18.9608 79.2107 19.4695 79 20 79H62C62.5305 79 63.0392 79.2107 63.4143 79.5858C63.7894 79.9609 64.0002 80.4697 64.0002 81.0001C64.0002 81.5306 63.7894 82.0394 63.4143 82.4145C63.0392 82.7896 62.5305 83.0003 62 83.0003Z" fill="#FFA437"/>
</g>
<defs>
<clipPath id="clip0_219_2120">
<rect width="128" height="128" fill="white"/>
</clipPath>
</defs>
</svg>
