<svg width="50" height="50" viewBox="0 0 50 50" fill="none" xmlns="http://www.w3.org/2000/svg">
<path d="M6.038 43.4634L1.9375 47.5638" stroke="#FFA437" stroke-width="1.5" stroke-linecap="round" stroke-linejoin="round"/>
<path d="M47.5625 1.9375L43.3984 6.1015" stroke="#FFA437" stroke-width="1.5" stroke-linecap="round" stroke-linejoin="round"/>
<path d="M15.2227 28.5259L28.5262 15.2227" stroke="#FFA437" stroke-width="1.5" stroke-linecap="round" stroke-linejoin="round"/>
<path d="M34.2179 21.0352L20.9336 34.3192" stroke="#FFA437" stroke-width="1.5" stroke-linecap="round" stroke-linejoin="round"/>
<path d="M16.3186 41.811C17.9002 43.3926 17.9002 45.9822 16.3186 47.5638C14.7369 49.1454 12.1473 49.1454 10.5656 47.5638L1.93623 38.9346C0.35459 37.353 0.35459 34.7634 1.93623 33.1818C3.51787 31.6002 6.10753 31.6002 7.68917 33.1818" stroke="#FFA437" stroke-width="1.5" stroke-linecap="round" stroke-linejoin="round"/>
<path d="M33.1823 7.68997C31.6007 6.10837 31.6007 3.51878 33.1823 1.93718C34.764 0.355577 37.3536 0.355577 38.9353 1.93718L47.5647 10.5664C49.1463 12.148 49.1463 14.7376 47.5647 16.3192C45.983 17.9008 43.3934 17.9008 41.8117 16.3192" stroke="#FFA437" stroke-width="1.5" stroke-linecap="round" stroke-linejoin="round"/>
<path d="M41.8098 27.8238L21.6745 7.689C20.0929 6.1074 20.0929 3.5178 21.6745 1.9362C23.2561 0.3546 25.8458 0.3546 27.4275 1.9362L47.5627 22.071C49.1444 23.6526 49.1444 26.2422 47.5627 27.8238C45.9811 29.4054 43.3914 29.4054 41.8098 27.8238Z" stroke="#FFA437" stroke-width="1.5" stroke-linecap="round" stroke-linejoin="round"/>
<path d="M22.0715 47.564L1.93623 27.4292C0.35459 25.8476 0.35459 23.258 1.93623 21.6764C3.51787 20.0948 6.10753 20.0948 7.68917 21.6764L27.8245 41.8112C29.4061 43.3928 29.4061 45.9824 27.8245 47.564C26.2428 49.1456 23.6532 49.1456 22.0715 47.564Z" stroke="#FFA437" stroke-width="1.5" stroke-linecap="round" stroke-linejoin="round"/>
</svg>
