<svg width="48" height="48" viewBox="0 0 48 48" fill="none" xmlns="http://www.w3.org/2000/svg">
<g clip-path="url(#clip0_199_523)">
<path d="M47.4 0H0.6C0.268652 0 0 0.268359 0 0.6V47.4C0 47.7317 0.268652 48 0.6 48H47.4C47.7314 48 48 47.7317 48 47.4V0.6C48 0.268359 47.7314 0 47.4 0ZM31.8056 46.8V40.7502C31.8056 40.4186 31.5369 40.1502 31.2056 40.1502C30.8742 40.1502 30.6056 40.4186 30.6056 40.7502V46.8H1.2V26.833H21.7658V31.5451C21.7658 31.8767 22.0345 32.1451 22.3658 32.1451C22.6972 32.1451 22.9658 31.8767 22.9658 31.5451V26.233C22.9658 25.9014 22.6972 25.633 22.3658 25.633H1.2V17.4656H22.3658C22.6972 17.4656 22.9658 17.1973 22.9658 16.8656V11.5541C22.9658 11.2225 22.6972 10.9541 22.3658 10.9541C22.0345 10.9541 21.7658 11.2225 21.7658 11.5541V16.2656H1.2V1.2H21.7658V6.09082C21.7658 6.42246 22.0345 6.69082 22.3658 6.69082C22.6972 6.69082 22.9658 6.42246 22.9658 6.09082V1.2H30.6056V6.09082C30.6056 6.42246 30.8742 6.69082 31.2056 6.69082C31.5369 6.69082 31.8056 6.42246 31.8056 6.09082V1.2H46.8V16.2656H31.8056V11.5541C31.8056 11.2225 31.5369 10.9541 31.2056 10.9541C30.8742 10.9541 30.6056 11.2225 30.6056 11.5541V26.233C30.6056 26.5646 30.8742 26.833 31.2056 26.833C31.5369 26.833 31.8056 26.5646 31.8056 26.233V17.4656H46.8V31.5287H31.2056C30.8742 31.5287 30.6056 31.797 30.6056 32.1287V35.9619C30.6056 36.2935 30.8742 36.5619 31.2056 36.5619C31.5369 36.5619 31.8056 36.2935 31.8056 35.9619V32.7287H46.8V46.8H31.8056Z" fill="#FFA437"/>
</g>
<defs>
<clipPath id="clip0_199_523">
<rect width="48" height="48" fill="white"/>
</clipPath>
</defs>
</svg>
