<svg width="50" height="50" viewBox="0 0 50 50" fill="none" xmlns="http://www.w3.org/2000/svg">
<path d="M0.75 48.75H48.75" stroke="#FFA437" stroke-width="1.5" stroke-linecap="round" stroke-linejoin="round"/>
<path d="M24.9544 48.7502C15.9676 48.7502 8.68359 41.465 8.68359 32.4794V21.089C8.68359 18.8426 10.5052 17.021 12.7516 17.021H36.7516C38.998 17.021 40.8196 18.8426 40.8196 21.089V32.4794C40.8196 41.4662 33.9412 48.7502 24.9556 48.7502H24.9544Z" stroke="#FFA437" stroke-width="1.5" stroke-linecap="round" stroke-linejoin="round"/>
<path d="M41.2868 21.7285H45.0176C47.078 21.7285 48.7484 23.3989 48.7484 25.4593V27.9745C48.7484 32.3557 45.1976 35.9065 40.8164 35.9065" stroke="#FFA437" stroke-width="1.5" stroke-linecap="round" stroke-linejoin="round"/>
<path d="M40.8196 21.7285H8.68359" stroke="#FFA437" stroke-width="1.5" stroke-linecap="round" stroke-linejoin="round"/>
<path d="M24.7502 0.75C25.8278 2.0976 25.8278 4.2804 24.7502 5.628C24.2114 6.3012 23.9414 7.1844 23.9414 8.0676C23.9414 8.9508 24.2114 9.834 24.7502 10.5072" stroke="#FFA437" stroke-width="1.5" stroke-linecap="round" stroke-linejoin="round"/>
<path d="M30.6018 0.75C31.6794 2.0976 31.6794 4.2804 30.6018 5.628C30.063 6.3012 29.793 7.1844 29.793 8.0676C29.793 8.9508 30.063 9.834 30.6018 10.5072" stroke="#FFA437" stroke-width="1.5" stroke-linecap="round" stroke-linejoin="round"/>
<path d="M18.8947 0.75C19.9723 2.0976 19.9723 4.2804 18.8947 5.628C18.3559 6.3012 18.0859 7.1844 18.0859 8.0676C18.0859 8.9508 18.3559 9.834 18.8947 10.5072" stroke="#FFA437" stroke-width="1.5" stroke-linecap="round" stroke-linejoin="round"/>
</svg>
