<svg width="48" height="48" viewBox="0 0 48 48" fill="none" xmlns="http://www.w3.org/2000/svg">
<g clip-path="url(#clip0_199_516)">
<path d="M22.616 0L3.30802 0.47191C1.75527 0.539326 0.540085 1.75281 0.472574 3.30337L0 22.5842C0 23.3933 0.270042 24.1348 0.810128 24.6742L21.8059 45.6405C23.2911 47.1236 25.3165 48 27.4768 48C29.6371 48 31.6625 47.191 33.1477 45.6405L45.6371 33.1686C47.1224 31.6854 48 29.663 48 27.5056C48 25.3483 47.1898 23.3258 45.6371 21.8427L24.7089 0.808992C24.1688 0.269663 23.4262 0 22.616 0ZM46.7173 27.5056C46.7173 29.2584 46.0422 30.9438 44.7595 32.2247L32.2701 44.6966C30.9874 45.9775 29.2996 46.6517 27.5443 46.6517C25.789 46.6517 24.1013 45.9775 22.8186 44.6966L1.82278 23.7303C1.55274 23.4606 1.35021 23.0562 1.35021 22.5842L1.82278 3.30337C1.82278 2.49438 2.49789 1.82022 3.30802 1.82022L22.616 1.34831C22.616 1.34831 22.616 1.34831 22.6835 1.34831C23.0886 1.34831 23.4937 1.48314 23.7637 1.82022L44.7595 22.7866C46.0422 24.0674 46.7173 25.7528 46.7173 27.5056Z" fill="#FFA437"/>
<path d="M11.8151 11.7975C9.45225 14.1571 9.45225 17.9998 11.8151 20.3593C13.0303 21.5728 14.583 22.1121 16.1358 22.1121C17.6886 22.1121 19.2413 21.5054 20.4565 20.3593C22.8194 17.9998 22.8194 14.1571 20.4565 11.7975C18.0936 9.43793 14.178 9.43793 11.8151 11.7975ZM19.4438 19.4155C17.621 21.2357 14.583 21.2357 12.7603 19.4155C10.9375 17.5953 10.9375 14.5615 12.7603 12.7413C13.7054 11.7975 14.9206 11.3931 16.1358 11.3931C17.351 11.3931 18.5662 11.8649 19.4438 12.7413C21.2666 14.5615 21.2666 17.5279 19.4438 19.4155Z" fill="#FFA437"/>
</g>
<defs>
<clipPath id="clip0_199_516">
<rect width="48" height="48" fill="white"/>
</clipPath>
</defs>
</svg>
