<svg width="48" height="48" viewBox="0 0 48 48" fill="none" xmlns="http://www.w3.org/2000/svg">
<g clip-path="url(#clip0_199_529)">
<path d="M24 0C37.2459 0 48 10.7541 48 24C48 37.2458 37.246 48 24 48C10.7541 48 0 37.2458 0 24C0 10.7541 10.7541 0 24 0ZM24 1.5C11.5648 1.5 1.5 11.5648 1.5 24C1.5 36.4352 11.5648 46.5 24 46.5C36.4352 46.5 46.5 36.4352 46.5 24C46.5 11.5648 36.4353 1.5 24 1.5ZM24 9C24.4142 9 24.75 9.33576 24.75 9.75V24C24.75 24.281 24.5802 24.5043 24.3516 24.6328C20.7902 26.7647 16.9948 28.9183 13.3359 31.0312C12.9773 31.2384 12.5118 31.1087 12.3046 30.75C12.0976 30.3913 12.2273 29.9258 12.5859 29.7187L23.25 23.5546V9.75C23.25 9.33576 23.5858 9 24 9Z" fill="#FFA437"/>
</g>
<defs>
<clipPath id="clip0_199_529">
<rect width="48" height="48" fill="white"/>
</clipPath>
</defs>
</svg>
