<svg width="50" height="50" viewBox="0 0 50 50" fill="none" xmlns="http://www.w3.org/2000/svg">
<path d="M0.75 11.7046V26.9422" stroke="#FFA437" stroke-width="1.5" stroke-linecap="round" stroke-linejoin="round"/>
<path d="M48.7499 26.9424V0.75H0.75V12.3624" stroke="#FFA437" stroke-width="1.5" stroke-linecap="round" stroke-linejoin="round"/>
<path d="M21.8516 26.9419H42.8191" stroke="#FFA437" stroke-width="1.5" stroke-linecap="round" stroke-linejoin="round"/>
<path d="M6.67969 26.9419H21.8537" stroke="#FFA437" stroke-width="1.5" stroke-linecap="round" stroke-linejoin="round"/>
<path d="M9.49319 0.75V10.2552C9.49319 15.0792 5.58359 18.9888 0.7608 18.9888C4.02959 18.9888 6.67919 21.6384 6.67919 24.9084V31.2648H0.75V26.9412" stroke="#FFA437" stroke-width="1.5" stroke-linecap="round" stroke-linejoin="round"/>
<path d="M40.0078 0.75V10.2552C40.0078 15.0792 43.9174 18.9888 48.7402 18.9888C45.4714 18.9888 42.8218 21.6384 42.8218 24.9084V31.2648H48.751V26.9412" stroke="#FFA437" stroke-width="1.5" stroke-linecap="round" stroke-linejoin="round"/>
<path d="M28.3721 13.8612L21.1289 9.6792V18.0444L28.3721 13.8612Z" stroke="#FFA437" stroke-width="1.5" stroke-linecap="round" stroke-linejoin="round"/>
<path d="M11.7111 48.7498H3.01953V42.8674C3.01953 40.4662 4.96473 38.521 7.36592 38.521C9.76592 38.521 11.7123 40.4674 11.7123 42.8674V48.7498H11.7111Z" stroke="#FFA437" stroke-width="1.5" stroke-linecap="round" stroke-linejoin="round"/>
<path d="M20.4025 48.7498H11.7109V42.8674C11.7109 40.4662 13.6561 38.521 16.0573 38.521C18.4573 38.521 20.4037 40.4674 20.4037 42.8674V48.7498H20.4025Z" stroke="#FFA437" stroke-width="1.5" stroke-linecap="round" stroke-linejoin="round"/>
<path d="M7.36719 38.5209V37.0725C7.36719 34.6713 9.31238 32.7261 11.7136 32.7261C14.1136 32.7261 16.06 34.6725 16.06 37.0725V38.5209" stroke="#FFA437" stroke-width="1.5" stroke-linecap="round" stroke-linejoin="round"/>
<path d="M16.0586 38.5209V37.0725C16.0586 34.6713 18.0038 32.7261 20.405 32.7261C22.805 32.7261 24.7514 34.6725 24.7514 37.0725V38.5209" stroke="#FFA437" stroke-width="1.5" stroke-linecap="round" stroke-linejoin="round"/>
<path d="M24.75 38.5209V37.0725C24.75 34.6713 26.6952 32.7261 29.0964 32.7261C31.4964 32.7261 33.4428 34.6725 33.4428 37.0725V38.5209" stroke="#FFA437" stroke-width="1.5" stroke-linecap="round" stroke-linejoin="round"/>
<path d="M33.4414 38.5209V37.0725C33.4414 34.6713 35.3866 32.7261 37.7878 32.7261C40.1878 32.7261 42.1342 34.6725 42.1342 37.0725V38.5209" stroke="#FFA437" stroke-width="1.5" stroke-linecap="round" stroke-linejoin="round"/>
<path d="M29.0978 48.7498H20.4062V42.8674C20.4062 40.4662 22.3514 38.521 24.7526 38.521C27.1526 38.521 29.099 40.4674 29.099 42.8674V48.7498H29.0978Z" stroke="#FFA437" stroke-width="1.5" stroke-linecap="round" stroke-linejoin="round"/>
<path d="M34.1676 48.7498H29.0977V42.8674C29.0977 40.4662 31.0429 38.521 33.444 38.521C35.844 38.521 37.7904 40.4674 37.7904 42.8674V48.7498H34.1688" stroke="#FFA437" stroke-width="1.5" stroke-linecap="round" stroke-linejoin="round"/>
<path d="M46.4807 48.7498H37.7891V42.8674C37.7891 40.4662 39.7343 38.521 42.1355 38.521C44.5355 38.521 46.4818 40.4674 46.4818 42.8674V48.7498H46.4807Z" stroke="#FFA437" stroke-width="1.5" stroke-linecap="round" stroke-linejoin="round"/>
</svg>
