<svg width="40" height="40" viewBox="0 0 40 40" fill="none" xmlns="http://www.w3.org/2000/svg">
<g clip-path="url(#clip0_199_75)">
<path d="M39.5 0H27.3274C27.0513 0 26.8274 0.223877 26.8274 0.5C26.8274 13.4387 15.7595 15.2258 13.1726 15.4665V0.5C13.1726 0.223877 12.9487 0 12.6726 0H0.5C0.223877 0 0 0.223877 0 0.5V5.50049C0 5.77661 0.223877 6.00049 0.5 6.00049H12.1726V16.0022C12.1726 16.1377 12.2275 16.2673 12.3249 16.3616C12.4185 16.4519 12.5432 16.5022 12.6726 16.5022C12.6782 16.5022 12.6839 16.5022 12.6895 16.5019C12.8201 16.4975 24.0037 15.9885 27.062 6.00049H39.5C39.7761 6.00049 40 5.77661 40 5.50049V0.5C40 0.223877 39.7761 0 39.5 0ZM12.1726 5.00049H1V1H12.1726V5.00049ZM39 5.00049H27.3327C27.6177 3.79687 27.7901 2.46802 27.822 1H39V5.00049Z" fill="white"/>
<path d="M39.5 33.9995H27.8274V23.9978C27.8274 23.8623 27.7725 23.7327 27.6751 23.6385C27.5777 23.5442 27.4509 23.4973 27.3105 23.4981C27.1799 23.5025 15.9963 24.0115 12.938 33.9995H0.5C0.223877 33.9995 0 34.2234 0 34.4995V39.5C0 39.7761 0.223877 40 0.5 40H12.6726C12.9487 40 13.1726 39.7761 13.1726 39.5C13.1726 26.5613 24.2405 24.7742 26.8274 24.5335V39.5C26.8274 39.7761 27.0513 40 27.3274 40H39.5C39.7761 40 40 39.7761 40 39.5V34.4995C40 34.2234 39.7761 33.9995 39.5 33.9995ZM12.178 39H1V34.9995H12.6673C12.3823 36.2031 12.2099 37.532 12.178 39ZM39 39H27.8274V34.9995H39V39Z" fill="white"/>
</g>
<defs>
<clipPath id="clip0_199_75">
<rect width="40" height="40" fill="white"/>
</clipPath>
</defs>
</svg>
