<svg width="40" height="40" viewBox="0 0 40 40" fill="none" xmlns="http://www.w3.org/2000/svg">
<g clip-path="url(#clip0_199_92)">
<path d="M20 0C31.0383 0 40 8.96173 40 20C40 31.0382 31.0383 40 20 40C8.96173 40 0 31.0382 0 20C0 8.96173 8.96173 0 20 0ZM20 1.25C9.63733 1.25 1.25 9.63733 1.25 20C1.25 30.3627 9.63733 38.75 20 38.75C30.3627 38.75 38.75 30.3627 38.75 20C38.75 9.63733 30.3627 1.25 20 1.25ZM20 7.5C20.3452 7.5 20.625 7.7798 20.625 8.125V20C20.625 20.2342 20.4835 20.4203 20.293 20.5273C17.3251 22.3039 14.1623 24.0986 11.1133 25.8593C10.8144 26.032 10.4265 25.9239 10.2539 25.625C10.0813 25.3261 10.1894 24.9382 10.4883 24.7656L19.375 19.6289V8.125C19.375 7.7798 19.6548 7.5 20 7.5Z" fill="white"/>
</g>
<defs>
<clipPath id="clip0_199_92">
<rect width="40" height="40" fill="white"/>
</clipPath>
</defs>
</svg>
