<svg width="40" height="40" viewBox="0 0 40 40" fill="none" xmlns="http://www.w3.org/2000/svg">
<g clip-path="url(#clip0_199_84)">
<path d="M39.5 0H0.5C0.223877 0 0 0.223633 0 0.5V39.5C0 39.7764 0.223877 40 0.5 40H39.5C39.7761 40 40 39.7764 40 39.5V0.5C40 0.223633 39.7761 0 39.5 0ZM26.5047 39V33.9585C26.5047 33.6821 26.2807 33.4585 26.0047 33.4585C25.7285 33.4585 25.5047 33.6821 25.5047 33.9585V39H1V22.3609H18.1382V26.2876C18.1382 26.5639 18.3621 26.7876 18.6382 26.7876C18.9143 26.7876 19.1382 26.5639 19.1382 26.2876V21.8609C19.1382 21.5845 18.9143 21.3609 18.6382 21.3609H1V14.5547H18.6382C18.9143 14.5547 19.1382 14.3311 19.1382 14.0547V9.6284C19.1382 9.35207 18.9143 9.1284 18.6382 9.1284C18.3621 9.1284 18.1382 9.35207 18.1382 9.6284V13.5547H1V1H18.1382V5.07569C18.1382 5.35205 18.3621 5.57569 18.6382 5.57569C18.9143 5.57569 19.1382 5.35205 19.1382 5.07569V1H25.5047V5.07569C25.5047 5.35205 25.7285 5.57569 26.0047 5.57569C26.2807 5.57569 26.5047 5.35205 26.5047 5.07569V1H39V13.5547H26.5047V9.6284C26.5047 9.35207 26.2807 9.1284 26.0047 9.1284C25.7285 9.1284 25.5047 9.35207 25.5047 9.6284V21.8609C25.5047 22.1372 25.7285 22.3609 26.0047 22.3609C26.2807 22.3609 26.5047 22.1372 26.5047 21.8609V14.5547H39V26.2739H26.0047C25.7285 26.2739 25.5047 26.4975 25.5047 26.7739V29.9683C25.5047 30.2446 25.7285 30.4683 26.0047 30.4683C26.2807 30.4683 26.5047 30.2446 26.5047 29.9683V27.2739H39V39H26.5047Z" fill="white"/>
</g>
<defs>
<clipPath id="clip0_199_84">
<rect width="40" height="40" fill="white"/>
</clipPath>
</defs>
</svg>
