<svg width="50" height="50" viewBox="0 0 50 50" fill="none" xmlns="http://www.w3.org/2000/svg">
<path d="M22.4182 29.2339C22.129 34.13 21.571 39.0033 20.7454 43.825L20.1046 47.5679C19.999 48.186 20.4742 48.75 21.1018 48.75H28.4052C29.0316 48.75 29.508 48.186 29.4024 47.5679L28.7616 43.825C27.936 39.0033 27.378 34.1312 27.0888 29.2339" stroke="#FFA437" stroke-width="1.5" stroke-linecap="round" stroke-linejoin="round"/>
<path d="M23.457 3.64551H26.0395" stroke="#FFA437" stroke-width="1.5" stroke-linecap="round" stroke-linejoin="round"/>
<path d="M16.5391 15.4932V18.9504" stroke="#FFA437" stroke-width="1.5" stroke-linecap="round" stroke-linejoin="round"/>
<path d="M32.957 15.4932V18.9504" stroke="#FFA437" stroke-width="1.5" stroke-linecap="round" stroke-linejoin="round"/>
<path d="M16.5419 15.4935C15.5459 15.4935 14.7383 14.6859 14.7383 13.6898V11.5118C14.7383 11.2322 14.9651 11.0054 15.2447 11.0054H17.8404C18.12 11.0054 18.3468 11.2322 18.3468 11.5118V13.6898C18.3468 14.6859 17.5392 15.4935 16.5431 15.4935H16.5419Z" stroke="#FFA437" stroke-width="1.5" stroke-linecap="round" stroke-linejoin="round"/>
<path d="M32.9599 15.4935C31.9639 15.4935 31.1562 14.6859 31.1562 13.6898V11.5118C31.1562 11.2322 31.3831 11.0054 31.6627 11.0054H34.2583C34.5379 11.0054 34.7647 11.2322 34.7647 11.5118V13.6898C34.7647 14.6859 33.9571 15.4935 32.9611 15.4935H32.9599Z" stroke="#FFA437" stroke-width="1.5" stroke-linecap="round" stroke-linejoin="round"/>
<path d="M36.7806 18.9509H12.7188C11.172 18.9509 9.91797 20.1629 9.91797 21.6582V27.7891C9.91797 28.1671 10.2048 28.4923 10.5924 28.5391C11.8068 28.6879 12.0288 29.222 13.6249 29.222C15.4789 29.222 15.4789 28.5019 17.3317 28.5019C19.1846 28.5019 19.1858 29.222 21.0398 29.222C22.8939 29.222 22.8939 28.5019 24.7479 28.5019C26.602 28.5019 26.602 29.222 28.456 29.222C30.3101 29.222 30.3101 28.5019 32.1641 28.5019C34.0182 28.5019 34.0182 29.222 35.8722 29.222C37.4694 29.222 37.6902 28.6879 38.9059 28.5391C39.2935 28.4923 39.5815 28.1659 39.5815 27.7879V21.657C39.5815 20.1617 38.3275 18.9497 36.7806 18.9497V18.9509Z" stroke="#FFA437" stroke-width="1.5" stroke-linecap="round" stroke-linejoin="round"/>
<path d="M27.271 16.7332H24.9178C24.6382 16.7332 24.4102 16.5064 24.4102 16.2256V11.1062C24.4102 10.8266 24.637 10.5986 24.9178 10.5986H27.271" stroke="#FFA437" stroke-width="1.5" stroke-linecap="round" stroke-linejoin="round"/>
<path d="M27.2865 18.9508V10.5518C27.2865 9.54142 27.0741 8.54179 26.6649 7.61897C26.2545 6.69615 26.0432 5.69652 26.0432 4.6861V1.42202C26.0432 1.05121 25.742 0.75 25.3712 0.75H24.134C23.762 0.75 23.462 1.05121 23.462 1.42202V4.6861C23.462 5.69652 23.2496 6.69615 22.8404 7.61897C22.43 8.54179 22.2188 9.54142 22.2188 10.5518V18.9508" stroke="#FFA437" stroke-width="1.5" stroke-linecap="round" stroke-linejoin="round"/>
<path d="M0.75 20.6978V48.7496" stroke="#FFA437" stroke-width="1.5" stroke-linecap="round" stroke-linejoin="round"/>
<path d="M14.1484 38.8794V48.7496" stroke="#FFA437" stroke-width="1.5" stroke-linecap="round" stroke-linejoin="round"/>
<path d="M0.75 38.8795H14.4663C15.3736 38.8795 16.1104 38.1439 16.1104 37.2355V36.8875C16.1104 35.9802 15.3748 35.2446 14.4663 35.2446H0.75V38.8807V38.8795Z" stroke="#FFA437" stroke-width="1.5" stroke-linecap="round" stroke-linejoin="round"/>
<path d="M48.75 20.6978V48.7496" stroke="#FFA437" stroke-width="1.5" stroke-linecap="round" stroke-linejoin="round"/>
<path d="M35.3516 38.8794V48.7496" stroke="#FFA437" stroke-width="1.5" stroke-linecap="round" stroke-linejoin="round"/>
<path d="M48.751 38.8795H35.0347C34.1274 38.8795 33.3906 38.1439 33.3906 37.2355V36.8875C33.3906 35.9802 34.1262 35.2446 35.0347 35.2446H48.751V38.8807V38.8795Z" stroke="#FFA437" stroke-width="1.5" stroke-linecap="round" stroke-linejoin="round"/>
</svg>
