<svg width="180" height="52" viewBox="0 0 180 52" fill="none" xmlns="http://www.w3.org/2000/svg">
<g clip-path="url(#clip0_199_215)">
<g opacity="0.7">
<path fill-rule="evenodd" clip-rule="evenodd" d="M137.301 15.2938L147.524 37.6202L152.009 28.4741L156.491 37.6202L166.534 15.2938H161.422L156.041 27.4878L154.069 23.3634L157.835 15.3829L153.083 15.2928L152.006 18.2517L150.572 15.2928H145.998L149.675 23.1831L147.79 27.3987L142.053 15.2938H137.301ZM43.4453 14.415L56.767 26.9757V15.2149H61.0778V37.0006L47.7848 24.193V36.2836H43.4453V14.415ZM63.4928 15.2723H72.5867C73.9765 15.2723 77.9269 16.3292 78.0661 20.5838C78.1778 23.7526 75.565 25.2285 75.565 25.2285C76.9825 25.8962 79.1518 27.536 79.1518 30.8728C79.1518 34.1276 76.2881 36.5182 73.8383 36.5182H63.4928V15.2702V15.2723ZM67.859 23.8376H71.1692C72.476 23.6696 73.4767 22.669 73.4767 21.2515C73.4767 19.749 72.1688 18.9164 71.0852 18.8313H67.859V23.8376ZM67.8857 33.0994H71.7244C72.6983 33.0134 74.3647 32.1817 74.3647 30.2624C74.3647 28.3983 72.724 27.5083 71.8339 27.4796H67.8847L67.8857 33.0994ZM95.6137 19.8197C91.0529 16.7881 84.8791 19.875 84.4888 25.4917C84.3209 32.3077 91.0508 35.116 95.6137 32.1674V36.5345C87.5482 39.5375 80.1503 33.8645 80.1227 25.632C80.1503 18.6521 87.8543 12.4783 95.6137 15.5642V19.8197ZM174.379 28.6104C167.948 24.3231 168.463 24.7768 167.992 24.0363C167.519 23.2968 166.177 19.4643 169.268 16.1674C172.361 12.8726 178.616 15.6973 178.616 15.6973V19.9344C178.616 19.9344 173.303 16.8403 171.824 19.665C170.345 22.4898 175.859 24.1694 175.859 24.1694C175.859 24.1694 179.557 26.3223 179.893 28.6749C180.229 31.0295 179.959 35.7367 176.195 36.6103C176.195 36.6103 172.562 38.629 167.653 36.0746L167.72 31.2998C167.72 31.2998 169.805 33.5858 172.766 33.4528C175.724 33.3166 176.599 30.0904 174.38 28.6114L174.379 28.6104ZM124.414 15.1207V36.5059H136.115L136.184 32.9417H129.038V27.8299H136.184V23.8622H129.038V19.0884H136.184V15.1207H124.414ZM104.726 14.4591L118.046 27.1427V15.2651H122.357V37.2617L109.062 24.3323V36.5417H104.726V14.4591Z" fill="#001B36" fill-opacity="0.6"/>
<path fill-rule="evenodd" clip-rule="evenodd" d="M32.0479 27.7046L21.2539 34.922L24.8898 26.281L26.6136 22.2569C27.312 20.9562 28.6281 20.1266 30.064 20.103C31.4385 20.103 32.6572 20.7647 33.4315 21.9517C34.2274 23.1387 34.2724 25.0796 33.4767 26.2799C33.1035 26.8471 32.6179 27.3317 32.0499 27.7036L32.0479 27.7046Z" fill="#001B36" fill-opacity="0.6"/>
<path fill-rule="evenodd" clip-rule="evenodd" d="M26.6774 20.8903L21.3392 33.5093L21.1016 32.1329L19.4968 21.7885C19.4597 21.4962 19.5055 21.1993 19.6288 20.9317C19.7521 20.6641 19.948 20.4365 20.1943 20.2747L20.9614 19.819C21.0064 19.6602 20.7832 19.6059 20.6786 19.5517L19.1773 19.5373C19.081 18.0451 19.7344 16.6931 20.9983 15.8779C21.9794 15.2388 23.4737 15.0718 24.5675 15.5891C25.9861 16.1677 26.9755 17.6805 26.999 19.2249C26.9918 19.7954 26.8945 20.3813 26.6794 20.8913L26.6774 20.8903Z" fill="#001B36" fill-opacity="0.6"/>
<path fill-rule="evenodd" clip-rule="evenodd" d="M16.4234 33.5542L11.1683 20.9034C10.6039 19.5484 10.8416 17.7683 11.8084 16.6745C12.8418 15.5253 14.2992 15.0388 15.7997 15.426C17.0707 15.7384 18.2597 16.9551 18.5732 18.2558C18.7207 18.7433 18.6992 19.3292 18.6704 19.8607L16.4254 33.5542H16.4234Z" fill="#001B36" fill-opacity="0.6"/>
<path fill-rule="evenodd" clip-rule="evenodd" d="M5.18737 27.2491C4.1089 26.3129 3.62752 25.0644 3.78218 23.6203C3.93887 22.1598 5.0911 20.729 6.46556 20.2897C7.87792 19.8482 9.41626 20.1975 10.4425 21.2565C10.8727 21.6672 11.14 22.1547 11.3633 22.6566L16.4433 34.9489L5.18737 27.2511V27.2491Z" fill="#001B36" fill-opacity="0.6"/>
<path fill-rule="evenodd" clip-rule="evenodd" d="M4.02987 36.2286C2.62469 36.0708 1.54313 35.312 0.882532 34.0245C0.213733 32.7237 0.386821 30.8802 1.28709 29.7281C2.26622 28.5543 3.6837 27.9633 5.11245 28.2522C5.6942 28.3464 6.18171 28.5963 6.64157 28.8861L17.5687 36.2337L4.02987 36.2286Z" fill="#001B36" fill-opacity="0.6"/>
<path fill-rule="evenodd" clip-rule="evenodd" d="M33.6999 36.2286C35.1051 36.0708 36.1868 35.312 36.8474 34.0245C37.5161 32.7237 37.341 30.8802 36.4428 29.7281C35.4636 28.5543 34.0461 27.9633 32.6174 28.2522C32.0357 28.3464 31.5482 28.5963 31.0883 28.8861L20.1602 36.2337L33.698 36.2295L33.6999 36.2286Z" fill="#001B36" fill-opacity="0.6"/>
</g>
</g>
<defs>
<clipPath id="clip0_199_215">
<rect width="180" height="24" fill="white" transform="translate(0 14)"/>
</clipPath>
</defs>
</svg>
