<svg width="134" height="52" viewBox="0 0 134 52" fill="none" xmlns="http://www.w3.org/2000/svg">
<g clip-path="url(#clip0_199_249)">
<g opacity="0.7">
<path d="M133.073 39.363H56.8828V12.6963H133.073V39.363ZM79.2344 35.1051H92.2956V31.8395H83.0443V27.4867H91.2071V24.7653H83.0443V20.9554H91.7514V17.6898H79.2344V35.1051ZM122.276 17.4294C119.555 17.4296 116.29 19.0628 116.29 22.3278C116.29 25.5931 118.468 26.682 121.189 27.2262C123.365 27.7703 126.085 28.3142 126.086 29.9463C126.086 31.579 123.909 32.1234 122.82 32.1234C120.644 32.1232 119.012 31.0344 119.012 28.8578H115.202C115.202 33.2112 119.011 34.8446 122.276 34.8447C127.174 34.8447 129.352 32.6672 129.352 29.402C129.351 25.593 125.542 25.0491 124.453 24.5049C120.1 23.4165 119.556 23.4161 119.556 21.7835C119.556 20.6953 121.188 20.1509 122.276 20.1507C123.909 20.1507 125.542 20.6952 125.542 22.8721H128.807C128.807 19.0626 125.541 17.4294 122.276 17.4294ZM61.8855 34.5595H65.1511V23.1312L72.2253 34.5595H76.0352V17.6885H72.7696V29.1168L65.6953 17.6885H61.8855V34.5595ZM97.7383 34.4098H101.547L104.268 22.9814L106.99 34.4098H110.799L115.697 17.5387H111.888L109.167 28.9684L105.901 17.5387H102.635L99.9142 28.9684L97.194 17.5387H93.3842L97.7383 34.4098Z" fill="#001B36" fill-opacity="0.6"/>
<path d="M6.52545 17.4277C2.71593 17.4277 0.539062 19.6046 0.539062 22.3257C0.539062 25.0467 2.17172 26.1351 5.43701 27.2237L10.8792 28.3121C11.9676 28.3121 12.5118 28.8562 12.5118 29.9447C12.5118 30.4889 12.5118 31.0331 10.8792 31.0331H2.71593C1.6275 31.0331 1.08328 31.5773 1.08328 32.6658V34.2985V34.8426H10.335C14.1444 34.8426 16.8656 33.2099 16.8656 29.9447C16.8656 27.2237 15.233 25.591 11.9676 25.0467L6.52545 23.4141C5.43701 23.4141 4.8928 22.8699 4.8928 21.7815C4.8928 21.2372 4.8928 20.693 6.52545 20.693H14.6887C15.7771 20.693 16.3214 20.1488 16.3214 19.0604V17.4277H6.52545Z" fill="#001B36" fill-opacity="0.6"/>
<mask id="mask0_199_249" style="mask-type:luminance" maskUnits="userSpaceOnUse" x="0" y="17" width="17" height="18">
<g opacity="0.7">
<path d="M6.52545 17.4277C2.71593 17.4277 0.539062 19.6046 0.539062 22.3257C0.539062 25.0467 2.17172 26.1351 5.43701 27.2237L10.8792 28.3121C11.9676 28.3121 12.5118 28.8562 12.5118 29.9447C12.5118 30.4889 12.5118 31.0331 10.8792 31.0331H2.71593C1.6275 31.0331 1.08328 31.5773 1.08328 32.6658V34.2985V34.8426H10.335C14.1444 34.8426 16.8656 33.2099 16.8656 29.9447C16.8656 27.2237 15.233 25.591 11.9676 25.0467L6.52545 23.4141C5.43701 23.4141 4.8928 22.8699 4.8928 21.7815C4.8928 21.2372 4.8928 20.693 6.52545 20.693H14.6887C15.7771 20.693 16.3214 20.1488 16.3214 19.0604V17.4277H6.52545Z" fill="white"/>
</g>
</mask>
<g mask="url(#mask0_199_249)">
<path d="M5.43053 27.2245L-19.5223 151.989L-27.2899 150.436L-34.8047 147.93L5.43053 27.2245ZM10.8727 28.3129V155.549H-1.72606L-14.0802 153.078L10.8727 28.3129ZM1.0768 34.8434V162.08H-126.159V34.8434H1.0768ZM11.9611 25.0476L-8.95619 150.552L-16.8929 149.229L-24.5996 146.917L11.9611 25.0476ZM6.51897 23.4149V-103.821H25.1931L43.0797 -98.4549L6.51897 23.4149ZM16.3149 17.4286V-109.807H143.55V17.4286H16.3149ZM6.51897 17.4286V144.664C28.5342 144.664 58.7149 138.159 85.4276 115.008C113.147 90.9849 127.768 56.7211 127.768 22.3265H0.532578H-126.703C-126.703 -14.7891 -110.993 -51.5019 -81.2331 -77.2937C-52.4798 -102.213 -19.3058 -109.807 6.51897 -109.807V17.4286ZM0.532578 22.3265H127.768C127.768 10.2734 125.943 -6.04153 118.697 -23.8557C111.198 -42.2902 99.9882 -57.1711 87.7332 -68.4049C76.3165 -78.8701 65.399 -84.8967 58.9139 -88.0493C52.4653 -91.1841 47.3432 -92.9229 45.6658 -93.4821L5.43053 27.2245L-34.8047 147.93C-37.9288 146.889 -61.9662 139.578 -84.219 119.18C-115.04 90.9274 -126.703 53.9811 -126.703 22.3265H0.532578ZM5.43053 27.2245L30.3834 -97.5405L35.8255 -96.4521L10.8727 28.3129L-14.0802 153.078L-19.5223 151.989L5.43053 27.2245ZM10.8727 28.3129V-98.9229C31.0294 -98.9229 69.517 -93.7975 102.066 -61.2485C134.615 -28.6993 139.741 9.78843 139.741 29.9455H12.5054H-114.73C-114.73 49.0141 -109.877 86.6854 -77.8718 118.69C-45.8669 150.696 -8.19564 155.549 10.8727 155.549V28.3129ZM12.5054 29.9455H139.741C139.741 29.9462 139.741 30.0013 139.741 30.0642C139.741 30.1322 139.741 30.2393 139.741 30.3697C139.739 30.6247 139.738 31.0374 139.731 31.5442C139.721 32.53 139.69 34.1726 139.594 36.2005C139.409 40.0948 138.917 46.9366 137.245 55.2982C133.582 73.6145 124.272 98.6613 102.27 120.663C81.519 141.414 58.6272 150.246 43.7478 154.104C29.3374 157.84 17.3295 158.269 10.8727 158.269V31.0339V-96.2018C5.23212 -96.2018 -6.16352 -95.8403 -20.1147 -92.2234C-34.5349 -88.4849 -57.1206 -79.8227 -77.6678 -59.2757C-120.564 -16.3799 -114.73 40.5355 -114.73 29.9455H12.5054ZM10.8727 31.0339V158.269H2.70944V31.0339V-96.2018H10.8727V31.0339ZM2.70944 31.0339V158.269C21.7778 158.269 59.4489 153.417 91.4539 121.412C123.459 89.4065 128.312 51.7353 128.312 32.6666H1.0768H-126.159C-126.159 12.5095 -121.033 -25.9782 -88.484 -58.5274C-55.9348 -91.0765 -17.4474 -96.2018 2.70944 -96.2018V31.0339ZM1.0768 32.6666H128.312V34.2993H1.0768H-126.159V32.6666H1.0768ZM1.0768 34.2993H128.312V34.8434H1.0768H-126.159V34.2993H1.0768ZM1.0768 34.8434V-92.3923H10.3285V34.8434V162.08H1.0768V34.8434ZM10.3285 34.8434V-92.3923C-3.45694 -92.3923 -30.7678 -89.7998 -58.3522 -70.3287C-91.495 -46.9339 -110.377 -9.11793 -110.377 29.9455H16.8592H144.095C144.095 72.2742 123.853 112.539 88.3969 137.567C58.4997 158.67 27.9234 162.08 10.3285 162.08V34.8434ZM16.8592 29.9455H-110.377C-110.377 55.8461 -101.604 89.3806 -74.3344 116.65C-49.856 141.128 -22.57 148.284 -8.95619 150.552L11.9611 25.0476L32.8785 -100.457C49.7577 -97.6438 79.4926 -89.4001 105.604 -63.2893C134.506 -34.3875 144.095 1.32383 144.095 29.9455H16.8592ZM11.9611 25.0476L-24.5996 146.917L-30.0418 145.285L6.51897 23.4149L43.0797 -98.4549L48.5218 -96.8222L11.9611 25.0476ZM6.51897 23.4149V150.65C-13.6379 150.65 -52.1254 145.525 -84.6746 112.976C-117.224 80.4269 -122.349 41.9394 -122.349 21.7823H4.88631H132.122C132.122 2.71364 127.269 -34.9577 95.2635 -66.9626C63.2585 -98.9675 25.5874 -103.821 6.51897 -103.821V23.4149ZM4.88631 21.7823H-122.349C-122.349 21.7816 -122.349 21.7264 -122.349 21.6636C-122.349 21.5955 -122.349 21.4885 -122.349 21.3582C-122.348 21.1031 -122.346 20.6904 -122.34 20.1836C-122.329 19.1979 -122.299 17.5552 -122.202 15.5273C-122.017 11.633 -121.525 4.79118 -119.853 -3.57045C-116.19 -21.8867 -106.881 -46.9335 -84.8786 -68.9355C-45.8443 -107.97 1.68135 -106.542 6.51897 -106.542V20.6938V147.929C12.1595 147.929 23.5552 147.568 37.5062 143.951C51.9265 140.213 74.5122 131.55 95.0594 111.003C137.955 68.1078 132.122 11.1922 132.122 21.7823H4.88631ZM6.51897 20.6938V-106.542H14.6822V20.6938V147.929H6.51897V20.6938ZM14.6822 20.6938V-106.542C-4.3862 -106.542 -42.0574 -101.689 -74.0623 -69.6838C-106.067 -37.6787 -110.921 -0.00749207 -110.921 19.0612H16.3149H143.55C143.55 39.2184 138.425 77.7059 105.876 110.255C73.3265 142.804 34.839 147.929 14.6822 147.929V20.6938ZM16.3149 19.0612H-110.921V17.4286H16.3149H143.55V19.0612H16.3149ZM16.3149 17.4286V144.664H6.51897V17.4286V-109.807H16.3149V17.4286Z" fill="#001B36" fill-opacity="0.6"/>
</g>
<path d="M31.0566 17.4344C30.5124 17.4344 29.9682 17.4343 29.9682 17.9786C29.9682 17.9786 24.526 23.9649 23.4375 25.0534C23.4375 25.5976 29.4239 33.7608 29.4239 33.7608L29.9682 34.305H34.3219V33.7608L28.3355 25.0534L34.3219 19.067L40.8524 28.3186V34.305H43.5736C44.662 34.305 44.662 33.7608 44.662 33.2166V28.3186L51.7368 17.4344V16.8901H47.9274C47.9274 17.4344 47.9274 17.4343 47.3831 17.9786C47.3831 17.9786 43.0294 24.5091 43.0294 25.0534L42.4851 25.5976L37.5872 17.9786C37.043 17.4343 36.4987 17.4344 35.4103 17.4344H31.0566Z" fill="#001B36" fill-opacity="0.6"/>
<mask id="mask1_199_249" style="mask-type:luminance" maskUnits="userSpaceOnUse" x="23" y="16" width="29" height="19">
<g opacity="0.7">
<path d="M31.0566 17.4353C30.5124 17.4353 29.9682 17.4353 29.9682 17.9795C29.9682 17.9795 24.526 23.9659 23.4375 25.0543C23.4375 25.5985 29.4239 33.7617 29.4239 33.7617L29.9682 34.306H34.3219V33.7617L28.3355 25.0543L34.3219 19.068L40.8524 28.3196V34.306H43.5736C44.662 34.306 44.662 33.7617 44.662 33.2176V28.3196L51.7368 17.4353V16.8911H47.9274C47.9274 17.4353 47.9274 17.4353 47.3831 17.9795C47.3831 17.9795 43.0294 24.5101 43.0294 25.0543L42.4851 25.5985L37.5872 17.9795C37.043 17.4353 36.4987 17.4353 35.4103 17.4353H31.0566Z" fill="white"/>
</g>
</mask>
<g mask="url(#mask1_199_249)">
<path d="M29.9679 17.979H157.203V67.1693L124.115 103.567L29.9679 17.979ZM23.4372 25.0538H-103.798V-27.6491L-66.5317 -64.9156L23.4372 25.0538ZM29.4236 33.7612L-60.5453 123.731L-67.4256 116.85L-73.1797 109.004L29.4236 33.7612ZM29.9679 34.3054V161.542H-22.7346L-60.0012 124.275L29.9679 34.3054ZM34.3216 34.3054H161.557V161.542H34.3216V34.3054ZM34.3216 33.7612L139.169 -38.3216L161.557 -5.7571V33.7612H34.3216ZM28.3352 25.0538L-76.5122 97.1366L-136.473 9.92242L-61.6338 -64.9156L28.3352 25.0538ZM34.3216 19.0674L-55.6474 -70.902L51.161 -177.71L138.269 -54.3075L34.3216 19.0674ZM40.8522 28.319L144.799 -45.0558L168.087 -12.0642V28.319H40.8522ZM40.8522 34.3054V161.542H-86.3834V34.3054H40.8522ZM44.6618 28.319H-82.574V-9.39883L-62.0181 -41.0231L44.6618 28.319ZM51.7366 17.4348H178.973V55.1526L158.417 86.7769L51.7366 17.4348ZM51.7366 16.8905V-110.345H178.973V16.8905H51.7366ZM47.9271 16.8905H-79.3086V-110.345H47.9271V16.8905ZM47.3828 17.979L-58.4836 -52.5988L-51.4949 -63.0818L-42.5863 -71.9904L47.3828 17.979ZM43.0291 25.0538H170.265V77.7566L132.998 115.023L43.0291 25.0538ZM42.4848 25.598L132.454 115.567L20.8251 227.196L-64.5429 94.4018L42.4848 25.598ZM37.587 17.979L127.556 -71.9904L137.222 -62.324L144.615 -50.8248L37.587 17.979ZM31.0563 17.4348V144.671C30.0155 144.671 34.2527 144.722 39.1202 144.397C43.6732 144.094 55.825 143.115 70.5432 138.209C86.0075 133.055 110.535 121.442 130.495 95.7797C151.31 69.0173 157.203 39.845 157.203 17.979H29.9679H-97.2678C-97.2678 -4.1591 -91.3065 -33.5355 -70.3723 -60.4511C-50.2934 -86.2664 -25.5954 -97.981 -9.92721 -103.204C4.99522 -108.178 17.385 -109.19 22.1931 -109.511C25.138 -109.707 27.5084 -109.763 28.834 -109.784C29.5339 -109.795 30.1046 -109.798 30.4555 -109.8C30.6358 -109.801 30.7846 -109.801 30.881 -109.801C30.9706 -109.801 31.0498 -109.801 31.0563 -109.801V17.4348ZM29.9679 17.979C124.115 103.567 124.115 103.567 124.115 103.567C124.114 103.567 124.113 103.569 124.113 103.569C124.112 103.57 124.111 103.571 124.11 103.572C124.109 103.573 124.107 103.576 124.104 103.578C124.1 103.583 124.094 103.59 124.086 103.598C124.072 103.614 124.052 103.636 124.027 103.663C123.978 103.717 123.91 103.792 123.824 103.887C123.653 104.074 123.412 104.339 123.122 104.657C122.547 105.288 121.752 106.159 120.903 107.085C120.532 107.489 116.443 111.987 113.406 115.023L23.4372 25.0538L-66.5317 -64.9156C-68.48 -62.9675 -69.3036 -62.0078 -66.6814 -64.8683C-66.0336 -65.575 -65.4001 -66.2687 -64.9209 -66.7944C-64.684 -67.0543 -64.4908 -67.2663 -64.3601 -67.4099C-64.2949 -67.4815 -64.2456 -67.5358 -64.2145 -67.5699C-64.1989 -67.587 -64.188 -67.599 -64.182 -67.6056C-64.1789 -67.609 -64.1772 -67.611 -64.1765 -67.6116C-64.1762 -67.612 -64.1762 -67.6119 -64.1765 -67.6116C-64.1768 -67.6114 -64.1772 -67.611 -64.1774 -67.6106C-64.1777 -67.6104 -64.1773 -67.6107 -64.1774 -67.6106C-64.1777 -67.6103 -64.1788 -67.6092 29.9679 17.979ZM23.4372 25.0538H150.673C150.673 11.648 148.53 1.16565 147.259 -4.20564C145.839 -10.213 144.242 -14.997 143.143 -18.0402C140.994 -24.0024 138.851 -28.5147 137.811 -30.6422C135.633 -35.0971 133.686 -38.3871 133.058 -39.4431C131.539 -41.9977 130.345 -43.7746 130.239 -43.9339C129.75 -44.668 129.639 -44.8054 130.192 -44.0259C130.599 -43.4519 131.073 -42.7948 131.486 -42.2248C131.681 -41.9556 131.84 -41.7384 131.94 -41.601C131.99 -41.5328 132.024 -41.4862 132.039 -41.4647C132.047 -41.454 132.05 -41.4498 132.048 -41.4524C132.048 -41.4538 132.045 -41.4567 132.042 -41.4616C132.04 -41.4641 132.038 -41.4668 132.035 -41.4702C132.034 -41.4719 132.033 -41.4736 132.031 -41.4755C132.031 -41.4764 132.03 -41.478 132.029 -41.4784C132.028 -41.48 132.027 -41.4815 29.4236 33.7612C-73.1797 109.004 -73.1809 109.002 -73.1821 109.001C-73.1825 109 -73.1838 108.998 -73.1847 108.997C-73.1864 108.995 -73.1882 108.992 -73.1903 108.99C-73.1941 108.984 -73.1984 108.978 -73.2031 108.972C-73.2124 108.959 -73.2232 108.945 -73.2355 108.928C-73.26 108.894 -73.2905 108.853 -73.3265 108.804C-73.3985 108.705 -73.493 108.576 -73.607 108.42C-73.834 108.109 -74.1434 107.684 -74.5094 107.179C-75.2185 106.202 -76.2418 104.784 -77.331 103.249C-78.2745 101.92 -79.8819 99.6396 -81.4937 97.2217C-82.1613 96.2205 -83.8228 93.7165 -85.6691 90.6115C-86.4607 89.2801 -88.5364 85.7589 -90.802 81.1246C-91.8859 78.9076 -94.062 74.3185 -96.2349 68.2934C-97.1952 65.631 -103.798 48.254 -103.798 25.0538H23.4372ZM29.4236 33.7612L119.393 -56.2083L119.937 -55.664L29.9679 34.3054L-60.0012 124.275L-60.5453 123.731L29.4236 33.7612ZM29.9679 34.3054V-92.9303H34.3216V34.3054V161.542H29.9679V34.3054ZM34.3216 34.3054H-92.9141V33.7612H34.3216H161.557V34.3054H34.3216ZM34.3216 33.7612L-70.5258 105.844L-76.5122 97.1366L28.3352 25.0538L133.183 -47.0291L139.169 -38.3216L34.3216 33.7612ZM28.3352 25.0538L-61.6338 -64.9156L-55.6474 -70.902L34.3216 19.0674L124.291 109.037L118.304 115.023L28.3352 25.0538ZM34.3216 19.0674L138.269 -54.3075L144.799 -45.0558L40.8522 28.319L-63.0952 101.694L-69.6257 92.4422L34.3216 19.0674ZM40.8522 28.319H168.087V34.3054H40.8522H-86.3834V28.319H40.8522ZM40.8522 34.3054V-92.9303H43.5734V34.3054V161.542H40.8522V34.3054ZM43.5734 34.3054V-92.9303C27.3144 -92.9303 -26.4941 -88.882 -61.3405 -36.6128C-75.8789 -14.8055 -80.036 6.00931 -81.4748 16.8005C-82.7752 26.5529 -82.574 35.1285 -82.574 33.217H44.6618H171.898C171.898 33.2204 171.898 33.2598 171.898 33.3046C171.898 33.3529 171.897 33.427 171.897 33.5168C171.897 33.6925 171.895 33.9733 171.893 34.3168C171.887 34.985 171.874 36.0922 171.831 37.4573C171.749 40.0548 171.529 44.6949 170.765 50.4328C169.291 61.479 165.066 82.532 150.391 104.543C115.273 157.22 60.9206 161.542 43.5734 161.542V34.3054ZM44.6618 33.217H-82.574V28.319H44.6618H171.898V33.217H44.6618ZM44.6618 28.319L-62.0181 -41.0231L-54.9433 -51.9074L51.7366 17.4348L158.417 86.7769L151.342 97.6612L44.6618 28.319ZM51.7366 17.4348H-75.4992V16.8905H51.7366H178.973V17.4348H51.7366ZM51.7366 16.8905V144.126H47.9271V16.8905V-110.345H51.7366V16.8905ZM47.9271 16.8905H175.163C175.163 16.8945 175.163 16.9785 175.162 17.0723C175.162 17.1725 175.162 17.3418 175.161 17.5494C175.159 17.9358 175.155 18.6819 175.137 19.6154C175.103 21.2816 175.002 25.0792 174.523 29.8741C173.391 41.1898 170.274 57.1116 161.662 74.3365C154.137 89.3857 145.355 99.3444 142.271 102.772C140.491 104.75 139.025 106.254 138.435 106.854C138.087 107.21 137.802 107.497 137.647 107.653C137.499 107.801 137.363 107.937 137.351 107.948L47.3828 17.979L-42.5863 -71.9904C-41.4863 -73.0903 -44.1883 -70.4468 -46.876 -67.4606C-49.808 -64.2027 -58.4873 -54.3802 -65.944 -39.467C-74.4884 -22.378 -77.5712 -6.59244 -78.6857 4.55325C-79.4513 12.2091 -79.3086 19.3817 -79.3086 16.8905H47.9271ZM47.3828 17.979C153.249 88.5568 153.25 88.5549 153.251 88.5529C153.253 88.5524 153.254 88.5504 153.254 88.5492C153.255 88.5466 153.258 88.5442 153.259 88.542C153.262 88.5374 153.265 88.5332 153.267 88.5293C153.273 88.5214 153.277 88.515 153.281 88.51C153.287 88.4998 153.29 88.4949 153.29 88.4948C153.29 88.4948 153.287 88.4994 153.281 88.5086C153.275 88.5177 153.266 88.5312 153.255 88.5486C153.207 88.6201 153.123 88.7481 153.015 88.9121C152.774 89.2785 152.538 89.6421 152.373 89.8993C152.055 90.396 152.447 89.8029 153.169 88.584C153.403 88.1878 154.705 86.003 156.281 82.9494C156.975 81.6033 158.813 78.002 160.793 73.178C161.77 70.795 163.526 66.3222 165.213 60.5264C166.361 56.5793 170.265 42.9946 170.265 25.0538H43.0291H-84.2066C-84.2066 7.07893 -80.2943 -6.5515 -79.1294 -10.5552C-77.427 -16.4076 -75.6458 -20.948 -74.6364 -23.4087C-72.5936 -28.3882 -70.6618 -32.1856 -69.848 -33.7624C-68.0339 -37.2774 -66.3933 -40.0616 -65.7504 -41.1466C-64.2117 -43.743 -62.7314 -46.0707 -61.9609 -47.2748C-61.0372 -48.7182 -60.1853 -50.0212 -59.6098 -50.8964C-59.3094 -51.3531 -59.054 -51.7396 -58.8633 -52.0274C-58.7674 -52.172 -58.6864 -52.294 -58.6226 -52.3899C-58.5908 -52.4379 -58.563 -52.4796 -58.5397 -52.5146C-58.5281 -52.532 -58.5176 -52.5478 -58.5082 -52.5619C-58.5036 -52.5688 -58.4992 -52.5755 -58.495 -52.5816C-58.4929 -52.5848 -58.491 -52.5878 -58.489 -52.5906C-58.4881 -52.592 -58.4868 -52.5942 -58.4862 -52.5948C-58.4849 -52.5968 -58.4836 -52.5988 47.3828 17.979ZM43.0291 25.0538L132.998 115.023L132.454 115.567L42.4848 25.598L-47.4842 -64.3714L-46.94 -64.9156L43.0291 25.0538ZM42.4848 25.598L-64.5429 94.4018L-69.4409 86.7828L37.587 17.979L144.615 -50.8248L149.513 -43.2059L42.4848 25.598ZM37.587 17.979L-52.3821 107.948C-44.7784 115.552 -34.8653 123.494 -22.3616 130.114C-9.86451 136.73 1.99557 140.317 11.7497 142.268C20.7784 144.073 27.9759 144.454 31.0475 144.577C33.8916 144.691 36.4034 144.671 35.41 144.671V17.4348V-109.801C35.418 -109.801 36.1319 -109.802 36.9196 -109.795C37.753 -109.788 39.3004 -109.768 41.2182 -109.691C44.715 -109.551 52.2867 -109.136 61.6554 -107.262C85.8396 -102.425 108.962 -90.5842 127.556 -71.9904L37.587 17.979ZM35.41 17.4348V144.671H31.0563V17.4348V-109.801H35.41V17.4348Z" fill="#001B36" fill-opacity="0.6"/>
</g>
<path d="M19.8814 17.4526C18.793 17.4526 18.793 17.9969 18.793 18.5411V34.3233H21.514C22.6024 34.3233 22.6024 33.779 22.6024 33.2349V17.4526H19.8814Z" fill="#001B36" fill-opacity="0.6"/>
<mask id="mask2_199_249" style="mask-type:luminance" maskUnits="userSpaceOnUse" x="18" y="17" width="5" height="18">
<g opacity="0.7">
<path d="M19.8814 17.4517C18.793 17.4517 18.793 17.9959 18.793 18.5401V34.3223H21.514C22.6024 34.3223 22.6024 33.7781 22.6024 33.2339V17.4517H19.8814Z" fill="white"/>
</g>
</mask>
<g mask="url(#mask2_199_249)">
<path d="M18.7943 34.3227V161.558H-108.441V34.3227H18.7943ZM22.6038 17.452V-109.784H149.839V17.452H22.6038ZM19.8827 17.452V144.688C36.1416 144.688 89.9503 140.639 124.797 88.37C139.335 66.5627 143.491 45.7479 144.931 34.9568C146.231 25.2044 146.03 16.6289 146.03 18.5405H18.7943H-108.441C-108.441 18.5371 -108.441 18.4976 -108.441 18.4528C-108.441 18.4046 -108.441 18.3304 -108.441 18.2407C-108.441 18.065 -108.44 17.7842 -108.437 17.4407C-108.432 16.7725 -108.418 15.6653 -108.375 14.3002C-108.293 11.7028 -108.073 7.0627 -107.308 1.32479C-105.835 -9.72144 -101.61 -30.7742 -86.9361 -52.7857C-51.8175 -105.463 2.53535 -109.784 19.8827 -109.784V17.452ZM18.7943 18.5405H146.03V34.3227H18.7943H-108.441V18.5405H18.7943ZM18.7943 34.3227V-92.913H21.5154V34.3227V161.558H18.7943V34.3227ZM21.5154 34.3227V-92.913C5.25655 -92.913 -48.5521 -88.8648 -83.3986 -36.5954C-97.9369 -14.7881 -102.094 6.02679 -103.533 16.8179C-104.833 26.5703 -104.632 35.1458 -104.632 33.2343H22.6038H149.839C149.839 33.2376 149.839 33.2771 149.839 33.3219C149.839 33.37 149.839 33.4443 149.839 33.534C149.839 33.7098 149.838 33.9906 149.835 34.334C149.83 35.0022 149.817 36.1094 149.773 37.4744C149.691 40.0719 149.471 44.712 148.706 50.4499C147.234 61.4962 143.009 82.5491 128.334 104.56C93.2155 157.238 38.8626 161.558 21.5154 161.558V34.3227ZM22.6038 33.2343H-104.632V17.452H22.6038H149.839V33.2343H22.6038ZM22.6038 17.452V144.688H19.8827V17.452V-109.784H22.6038V17.452Z" fill="#001B36" fill-opacity="0.6"/>
</g>
</g>
</g>
<defs>
<clipPath id="clip0_199_249">
<rect width="133.333" height="28" fill="white" transform="translate(0 12)"/>
</clipPath>
</defs>
</svg>
