<svg width="168" height="46" viewBox="0 0 168 46" fill="none" xmlns="http://www.w3.org/2000/svg">
<path d="M43.8741 14.6841H60.7777V17.8201H54.1312V35.4493H50.4764V17.8201H43.8594V14.6841H43.8741ZM60.0555 20.4139H63.1798V23.3155H63.2388C63.3419 22.9052 63.5335 22.5095 63.8135 22.1285C64.0935 21.7475 64.4325 21.3811 64.8304 21.0734C65.2283 20.751 65.6704 20.5019 66.1567 20.2967C66.6431 20.1062 67.1441 20.0036 67.6452 20.0036C68.0283 20.0036 68.3084 20.0183 68.4557 20.0329C68.6031 20.0476 68.7505 20.0769 68.9126 20.0915V23.2862C68.6768 23.2422 68.441 23.2129 68.1905 23.1836C67.9399 23.1543 67.7041 23.1396 67.4683 23.1396C66.9083 23.1396 66.3778 23.2569 65.8767 23.4767C65.3757 23.6965 64.9483 24.0335 64.5798 24.4585C64.2114 24.8982 63.9167 25.4257 63.6956 26.0705C63.4746 26.7153 63.3714 27.448 63.3714 28.2833V35.4346H60.0408V20.4139L60.0555 20.4139ZM84.2245 35.4493H80.9529V33.3537H80.8939C80.4813 34.1157 79.877 34.7166 79.0665 35.1708C78.2559 35.6251 77.4307 35.8596 76.5906 35.8596C74.6011 35.8596 73.1569 35.376 72.2727 34.3942C71.3884 33.4123 70.9463 31.9322 70.9463 29.9539V20.4139H74.2769V29.6315C74.2769 30.9504 74.5274 31.8883 75.0432 32.4305C75.5443 32.9727 76.2664 33.2511 77.1801 33.2511C77.8875 33.2511 78.4623 33.1485 78.9339 32.9287C79.4054 32.7089 79.7886 32.4305 80.0686 32.0641C80.3634 31.7124 80.5697 31.2728 80.7023 30.7745C80.835 30.2763 80.8939 29.7341 80.8939 29.1479V20.4286H84.2245V35.4493ZM89.8983 30.628C90.0015 31.5952 90.3699 32.2693 91.0036 32.6649C91.652 33.046 92.4184 33.2511 93.3173 33.2511C93.6268 33.2511 93.9805 33.2218 94.3784 33.1778C94.7763 33.1339 95.1595 33.0313 95.4984 32.8994C95.8521 32.7675 96.1321 32.5624 96.3679 32.2986C96.589 32.0348 96.6922 31.6978 96.6774 31.2728C96.6627 30.8478 96.5006 30.4961 96.2058 30.2323C95.9111 29.9539 95.5427 29.7487 95.0858 29.5729C94.629 29.4117 94.1131 29.2651 93.5237 29.1479C92.9342 29.0307 92.3447 28.8988 91.7405 28.7669C91.1215 28.635 90.5173 28.4592 89.9425 28.2686C89.3678 28.0781 88.852 27.8144 88.3951 27.4773C87.9383 27.1549 87.5698 26.7299 87.3046 26.217C87.0246 25.7041 86.8919 25.074 86.8919 24.312C86.8919 23.4913 87.0983 22.8172 87.4962 22.2604C87.8941 21.7035 88.4099 21.2639 89.0141 20.9268C89.6331 20.5898 90.311 20.3553 91.0626 20.2088C91.8142 20.0769 92.5363 20.0036 93.2142 20.0036C93.9953 20.0036 94.7468 20.0915 95.4542 20.2527C96.1616 20.4139 96.8101 20.6777 97.3848 21.0587C97.9595 21.4251 98.4311 21.9087 98.8143 22.4948C99.1975 23.081 99.4333 23.7991 99.5364 24.6344H96.0585C95.8963 23.843 95.5427 23.3008 94.9679 23.0371C94.3932 22.7586 93.73 22.6267 92.9931 22.6267C92.7573 22.6267 92.4773 22.6414 92.1531 22.6853C91.8289 22.7293 91.5341 22.8026 91.2394 22.9052C90.9594 23.0077 90.7236 23.1689 90.5173 23.3741C90.3257 23.5793 90.2225 23.843 90.2225 24.1801C90.2225 24.5904 90.3699 24.9128 90.6499 25.1619C90.9299 25.4111 91.2983 25.6162 91.7552 25.7921C92.2121 25.9533 92.7279 26.0998 93.3173 26.217C93.9068 26.3343 94.5111 26.4662 95.13 26.5981C95.7342 26.7299 96.3237 26.9058 96.9132 27.0963C97.5027 27.2868 98.0185 27.5506 98.4754 27.8876C98.9322 28.2247 99.3006 28.635 99.5806 29.1333C99.8607 29.6315 100.008 30.2616 100.008 30.9944C100.008 31.8883 99.8017 32.6356 99.3891 33.2658C98.9764 33.8813 98.4459 34.3942 97.7974 34.7752C97.149 35.1562 96.4122 35.4493 95.6163 35.6251C94.8205 35.801 94.0247 35.8889 93.2437 35.8889C92.2857 35.8889 91.4015 35.7863 90.591 35.5665C89.7804 35.3467 89.073 35.0243 88.4836 34.5993C87.8941 34.1597 87.4225 33.6175 87.0835 32.9727C86.7446 32.3279 86.5677 31.5512 86.5382 30.6573H89.8983V30.628ZM100.892 20.4139H103.412V15.9004H106.743V20.4139H109.749V22.8905H106.743V30.9211C106.743 31.2728 106.758 31.5659 106.787 31.8297C106.817 32.0788 106.89 32.2986 106.993 32.4744C107.097 32.6503 107.259 32.7822 107.48 32.8701C107.701 32.958 107.981 33.002 108.364 33.002C108.6 33.002 108.836 33.002 109.071 32.9873C109.307 32.9727 109.543 32.9434 109.779 32.8848V35.4493C109.41 35.4932 109.042 35.5225 108.703 35.5665C108.349 35.6105 107.996 35.6251 107.627 35.6251C106.743 35.6251 106.036 35.5372 105.505 35.376C104.974 35.2148 104.547 34.9657 104.252 34.6433C103.943 34.3209 103.751 33.9252 103.633 33.4416C103.53 32.958 103.457 32.4012 103.442 31.7857V22.9198H100.922V20.4139H100.892ZM112.107 20.4139H115.261V22.4509H115.32C115.792 21.5716 116.44 20.9561 117.28 20.5751C118.12 20.1941 119.019 20.0036 120.006 20.0036C121.2 20.0036 122.232 20.2088 123.116 20.6337C124 21.0441 124.737 21.6156 125.326 22.3483C125.916 23.081 126.343 23.931 126.638 24.8982C126.933 25.8653 127.08 26.9058 127.08 28.0049C127.08 29.016 126.948 29.9979 126.682 30.9357C126.417 31.8883 126.019 32.7236 125.489 33.4563C124.958 34.189 124.28 34.7605 123.455 35.2001C122.63 35.6398 121.672 35.8596 120.552 35.8596C120.065 35.8596 119.579 35.8156 119.093 35.7277C118.606 35.6398 118.135 35.4932 117.693 35.3027C117.251 35.1122 116.823 34.8631 116.455 34.5554C116.072 34.2476 115.762 33.8959 115.497 33.5002H115.438V41.0033H112.107V20.4139ZM123.75 27.9463C123.75 27.2722 123.661 26.6127 123.484 25.9679C123.308 25.3231 123.042 24.7663 122.689 24.268C122.335 23.7698 121.893 23.3741 121.377 23.081C120.846 22.7879 120.242 22.6267 119.564 22.6267C118.164 22.6267 117.103 23.1103 116.396 24.0775C115.688 25.0447 115.335 26.3343 115.335 27.9463C115.335 28.7083 115.423 29.4117 115.615 30.0565C115.806 30.7013 116.072 31.2581 116.455 31.7271C116.823 32.196 117.265 32.5624 117.781 32.8261C118.297 33.1046 118.901 33.2365 119.579 33.2365C120.345 33.2365 120.979 33.0753 121.51 32.7675C122.04 32.4598 122.467 32.0495 122.806 31.5659C123.145 31.0676 123.396 30.5108 123.543 29.8806C123.676 29.2505 123.75 28.6057 123.75 27.9463ZM129.63 14.6841H132.96V17.8201H129.63V14.6841ZM129.63 20.4139H132.96V35.4493H129.63V20.4139ZM135.937 14.6841H139.268V35.4493H135.937V14.6841ZM149.481 35.8596C148.272 35.8596 147.196 35.6544 146.253 35.2588C145.31 34.8631 144.514 34.3062 143.851 33.6175C143.203 32.9141 142.702 32.0788 142.363 31.1116C142.024 30.1444 141.847 29.0746 141.847 27.9169C141.847 26.7739 142.024 25.7188 142.363 24.7516C142.702 23.7844 143.203 22.9491 143.851 22.2457C144.5 21.5423 145.31 21.0001 146.253 20.6044C147.196 20.2088 148.272 20.0036 149.481 20.0036C150.689 20.0036 151.765 20.2088 152.708 20.6044C153.651 21.0001 154.447 21.557 155.11 22.2457C155.759 22.9491 156.26 23.7844 156.599 24.7516C156.938 25.7188 157.115 26.7739 157.115 27.9169C157.115 29.0746 156.938 30.1444 156.599 31.1116C156.26 32.0788 155.759 32.9141 155.11 33.6175C154.462 34.3209 153.651 34.8631 152.708 35.2588C151.765 35.6544 150.689 35.8596 149.481 35.8596ZM149.481 33.2365C150.218 33.2365 150.866 33.0753 151.411 32.7675C151.957 32.4598 152.399 32.0495 152.752 31.5512C153.106 31.053 153.357 30.4815 153.533 29.8513C153.696 29.2212 153.784 28.5764 153.784 27.9169C153.784 27.2722 153.696 26.642 153.533 25.9972C153.371 25.3524 153.106 24.7956 152.752 24.2973C152.399 23.7991 151.957 23.4034 151.411 23.0957C150.866 22.7879 150.218 22.6267 149.481 22.6267C148.744 22.6267 148.095 22.7879 147.55 23.0957C147.005 23.4034 146.563 23.8137 146.209 24.2973C145.855 24.7956 145.605 25.3524 145.428 25.9972C145.266 26.642 145.177 27.2722 145.177 27.9169C145.177 28.5764 145.266 29.2212 145.428 29.8513C145.59 30.4815 145.855 31.053 146.209 31.5512C146.563 32.0495 147.005 32.4598 147.55 32.7675C148.095 33.0899 148.744 33.2365 149.481 33.2365ZM158.087 20.4139H160.607V15.9004H163.938V20.4139H166.944V22.8905H163.938V30.9211C163.938 31.2728 163.953 31.5659 163.982 31.8297C164.012 32.0788 164.085 32.2986 164.188 32.4744C164.292 32.6503 164.454 32.7822 164.675 32.8701C164.896 32.958 165.176 33.002 165.559 33.002C165.795 33.002 166.031 33.002 166.266 32.9873C166.502 32.9727 166.738 32.9434 166.974 32.8848V35.4493C166.605 35.4932 166.237 35.5225 165.898 35.5665C165.544 35.6105 165.191 35.6251 164.822 35.6251C163.938 35.6251 163.231 35.5372 162.7 35.376C162.169 35.2148 161.742 34.9657 161.447 34.6433C161.138 34.3209 160.946 33.9252 160.828 33.4416C160.725 32.958 160.652 32.4012 160.637 31.7857V22.9198H158.117V20.4139L158.087 20.4139Z" fill="#001B36"/>
<path d="M39.9859 14.684H24.7182L20.0023 0.234863L15.2716 14.684L0.00390625 14.6694L12.3684 23.6085L7.63776 38.043L20.0023 29.1186L32.352 38.043L27.6361 23.6085L39.9859 14.684Z" fill="#00B67A"/>
<path d="M28.6949 26.8763L27.6339 23.6084L20 29.1184L28.6949 26.8763Z" fill="#005128"/>
</svg>
